<svg preserveAspectRatio="none" width="100%" height="100%" overflow="visible" style="display: block;" viewBox="0 0 223.651 89.1268" fill="none" xmlns="http://www.w3.org/2000/svg">
<g id="Layer_1" clip-path="url(#clip0_0_4)">
<path id="Vector" d="M52.3819 50.9867C52.3819 51.6056 52.4992 51.6605 52.7972 51.7237C52.9933 51.7705 53.2125 51.951 53.2125 52.2334C53.2125 52.5781 53.032 52.7274 52.601 52.7274C52.3269 52.7274 52.2251 52.6331 51.7548 52.6331C51.2845 52.6331 51.1433 52.7274 50.9004 52.7274C50.4694 52.7274 50.2815 52.5789 50.2815 52.2334C50.2815 51.951 50.5088 51.7712 50.705 51.7319C51.1129 51.6457 51.1515 51.6457 51.1515 50.9874V48.8633C51.1515 48.2518 51.1515 48.2124 50.705 48.1262C50.5088 48.0869 50.2815 47.8989 50.2815 47.6166C50.2815 47.2718 50.4694 47.1225 50.9004 47.1225C51.1671 47.1225 51.4413 47.2005 52.656 47.2005C52.9458 47.2005 53.2437 47.3417 53.4086 47.679C53.8396 48.5728 54.0513 50.477 54.1843 50.477C54.3099 50.477 54.529 48.5876 54.8976 47.6946C55.0461 47.3417 55.3054 47.2005 55.587 47.2005C56.8018 47.2005 57.1235 47.1225 57.3895 47.1225C57.8204 47.1225 58.0084 47.2711 58.0084 47.6166C58.0084 47.8989 57.781 48.0869 57.5849 48.1262C57.1384 48.2124 57.1384 48.2518 57.1384 48.8633V50.9874C57.1384 51.6457 57.1777 51.6457 57.5849 51.7319C57.781 51.7712 58.0084 51.951 58.0084 52.2334C58.0084 52.5781 57.8204 52.7274 57.3895 52.7274C57.1465 52.7274 57.0135 52.6331 56.5351 52.6331C56.0566 52.6331 55.963 52.7274 55.6888 52.7274C55.2653 52.7274 55.0774 52.5789 55.0774 52.2334C55.0774 51.951 55.2965 51.7712 55.4927 51.7237C55.7906 51.6613 55.908 51.6063 55.908 50.9867V48.5178C55.775 48.5178 55.3121 50.2734 55.1086 51.0885C54.983 51.5981 54.9436 52.327 54.1524 52.327C53.3611 52.327 53.3373 51.5825 53.1805 51.1041C52.8826 50.1872 52.5141 48.517 52.3811 48.517V50.9859L52.3819 50.9867Z" fill="var(--fill-0, #D42D78)"/>
<path id="Vector_2" d="M58.2916 51.6213C58.2916 50.6413 59.0992 50.2498 60.7211 50.2104C60.7129 49.4347 60.6505 49.246 60.2196 49.246C59.8117 49.246 59.7099 49.379 59.7099 49.7401C59.7099 49.983 59.5294 50.1004 59.2708 50.1004C58.8473 50.1004 58.5813 49.8263 58.5813 49.4109C58.5813 49.1598 58.7849 48.4547 60.3139 48.4547C61.5057 48.4547 61.9834 48.9169 61.9834 49.9125V51.3078C61.9834 51.7469 61.999 51.8018 62.4069 51.8018C62.5324 51.8018 62.6654 51.8256 62.6654 52.021C62.6654 52.2164 62.5555 52.7655 61.866 52.7655C61.5443 52.7655 61.184 52.6399 60.996 52.2558C60.698 52.5537 60.2515 52.7655 59.5933 52.7655C58.4647 52.7655 58.2923 52.0284 58.2923 51.6213H58.2916ZM59.562 51.417C59.562 51.7223 59.6794 51.8249 60.1497 51.8249C60.62 51.8249 60.7374 51.3858 60.7374 50.8924C59.7188 50.8924 59.562 51.1198 59.562 51.4177V51.417Z" fill="var(--fill-0, #D42D78)"/>
<path id="Vector_3" d="M64.8675 51.2216C64.8675 51.6681 65.0161 51.7231 65.5258 51.8174C65.7843 51.8642 65.9099 52.0136 65.9099 52.2721C65.9099 52.5857 65.7375 52.7187 65.3378 52.7187C65.0867 52.7187 64.7501 52.6406 64.311 52.6406C63.8719 52.6406 63.6216 52.7187 63.3942 52.7187C62.9945 52.7187 62.8221 52.5857 62.8221 52.2721C62.8221 52.0136 63.0339 51.8568 63.2144 51.8174C63.5985 51.7394 63.6297 51.7394 63.6297 51.1436V49.9444C63.6297 49.3567 63.5829 49.3567 63.2144 49.3567C63.0264 49.3567 62.8221 49.2549 62.8221 49.0038C62.8221 48.6903 63.175 48.4941 63.8727 48.4941C64.3118 48.4941 64.5309 48.6977 64.6491 48.98C64.9626 48.6353 65.4411 48.4547 65.872 48.4547C66.8126 48.4547 67.0481 49.1056 67.0481 49.5915C67.0481 50.015 66.7658 50.3516 66.3587 50.3516C65.9515 50.3516 65.7628 50.2186 65.7628 49.9912C65.7628 49.9288 65.794 49.8426 65.794 49.7557C65.794 49.4659 65.716 49.3322 65.3861 49.3322C64.9552 49.3322 64.869 49.5046 64.869 50.0767V51.2208L64.8675 51.2216Z" fill="var(--fill-0, #D42D78)"/>
<path id="Vector_4" d="M158.412 51.4727C158.467 51.4727 158.522 51.4177 158.522 51.3078C158.522 51.0886 158.427 51.1354 158.427 50.8457C158.427 50.6183 158.655 50.4147 158.992 50.4147C159.407 50.4147 159.791 50.6733 159.791 51.3472C159.791 52.021 159.415 52.7662 158.513 52.7662C157.611 52.7662 157.573 52.3353 156.836 52.3353C156.624 52.3353 156.663 52.7662 155.997 52.7662C155.456 52.7662 155.197 52.0448 155.197 51.5589C155.197 50.1562 156.146 49.7401 157.079 49.4192C157.753 49.1836 158.121 49.0113 158.121 48.6591C158.121 48.3069 157.98 48.1026 157.439 48.1026C156.898 48.1026 156.726 48.2832 156.71 48.7847C156.702 48.957 156.686 49.2862 156.216 49.2862C155.62 49.2862 155.385 48.824 155.385 48.3924C155.385 47.8203 155.911 47.0758 157.368 47.0758C158.944 47.0758 159.603 47.7423 159.603 48.6985C159.603 50.6265 156.507 49.8664 156.507 51.4497C156.515 51.4341 156.703 51.1755 157.18 51.1755C157.933 51.1755 158.105 51.4735 158.411 51.4735L158.412 51.4727Z" fill="var(--fill-0, #D42D78)"/>
<path id="Vector_5" d="M164.809 49.9132C164.809 51.6295 164.041 52.7662 162.505 52.7662C161.109 52.7662 160.2 51.7944 160.2 49.9132C160.2 48.032 161.086 47.0758 162.505 47.0758C163.924 47.0758 164.809 48.1026 164.809 49.9132ZM163.43 49.8976C163.43 48.4399 163.242 48.1732 162.505 48.1732C161.768 48.1732 161.589 48.4399 161.589 49.8976C161.589 51.3553 161.769 51.6302 162.505 51.6302C163.242 51.6302 163.43 51.3479 163.43 49.8976Z" fill="var(--fill-0, #D42D78)"/>
<path id="Vector_6" d="M168.515 51.4727C168.57 51.4727 168.625 51.4177 168.625 51.3078C168.625 51.0886 168.531 51.1354 168.531 50.8457C168.531 50.6183 168.758 50.4147 169.096 50.4147C169.511 50.4147 169.895 50.6733 169.895 51.3472C169.895 52.021 169.519 52.7662 168.617 52.7662C167.715 52.7662 167.677 52.3353 166.94 52.3353C166.728 52.3353 166.767 52.7662 166.101 52.7662C165.56 52.7662 165.301 52.0448 165.301 51.5589C165.301 50.1562 166.25 49.7401 167.183 49.4192C167.856 49.1836 168.225 49.0113 168.225 48.6591C168.225 48.3069 168.084 48.1026 167.543 48.1026C167.002 48.1026 166.83 48.2832 166.814 48.7847C166.806 48.957 166.79 49.2862 166.32 49.2862C165.724 49.2862 165.489 48.824 165.489 48.3924C165.489 47.8203 166.015 47.0758 167.472 47.0758C169.048 47.0758 169.706 47.7423 169.706 48.6985C169.706 50.6265 166.61 49.8664 166.61 51.4497C166.619 51.4341 166.807 51.1755 167.284 51.1755C168.037 51.1755 168.209 51.4735 168.515 51.4735L168.515 51.4727Z" fill="var(--fill-0, #D42D78)"/>
<path id="Vector_7" d="M171.815 49.3411C172.042 49.2156 172.387 49.09 172.983 49.09C174.072 49.09 174.824 49.8189 174.824 50.8613C174.824 52.0604 173.853 52.7662 172.676 52.7662C171.031 52.7662 170.309 51.5277 170.309 50.0856C170.309 48.6435 171.109 47.0758 172.849 47.0758C173.813 47.0758 174.487 47.5149 174.487 48.1888C174.487 48.6197 174.252 48.9726 173.656 48.9726C173.186 48.9726 173.108 48.7297 173.108 48.5967C173.108 48.4949 173.155 48.3849 173.155 48.2988C173.155 48.1888 172.991 48.087 172.693 48.087C172.09 48.087 171.87 48.4243 171.815 49.3411ZM171.792 50.885C171.792 51.4021 172.113 51.677 172.646 51.677C173.234 51.677 173.5 51.5121 173.5 50.8776C173.5 50.2431 173.257 50.0626 172.646 50.0626C172.035 50.0626 171.792 50.2349 171.792 50.8858V50.885Z" fill="var(--fill-0, #D42D78)"/>
<path id="Vector_8" d="M0.000935204 29.1602C-0.00203668 27.5434 1.19935 26.218 2.74993 25.9802C3.74699 25.8272 4.40601 26.6118 4.39635 27.5412C4.38075 29.1096 5.29758 29.7129 6.81026 29.6394C8.31478 29.5666 9.2591 28.86 9.25092 27.2864C9.24572 26.2603 8.60528 25.4401 7.5198 25.4178C4.25742 25.3502 0.539589 24.2937 0.552963 20.2683C0.56485 16.6277 3.47655 13.9619 6.8697 13.1736C9.81112 12.4909 13.0854 13.086 13.1292 16.708C13.1478 18.2578 12.1857 19.8745 10.6381 20.2096C9.6395 20.4258 9.09341 19.5587 9.06444 18.7028C9.01392 17.2132 8.42028 16.2347 6.76346 16.6039C5.52344 16.8803 4.70468 17.7407 4.69057 19.0297C4.67422 20.5536 5.90384 20.8158 7.16466 20.8337C11.037 20.8887 13.7021 22.4378 13.8514 26.5664C14.0067 30.8675 10.7101 33.4776 6.60298 33.4263C3.97063 33.3929 0.00687897 32.5652 0.000935204 29.1602Z" fill="var(--fill-0, #D42D78)"/>
<path id="Vector_9" d="M29.7034 15.9677C29.6886 15.0753 29.9278 13.0299 28.6982 12.8004C27.8408 12.6399 27.236 11.7818 27.2041 10.8464C27.1588 9.53501 27.7866 8.51937 29.1195 8.29573C29.959 8.15457 30.806 8.39232 31.6515 8.2311C32.5186 8.06541 33.2712 7.54682 34.0981 7.3425C35.437 7.01188 36.1153 8.0877 36.1294 9.28834C36.1405 10.2267 35.6792 11.4103 34.795 11.8776C33.133 12.4995 33.3715 13.9334 33.399 15.4788C33.4644 20.2264 33.5297 24.9747 33.5959 29.7223C33.6902 31.9022 32.8611 33.27 30.6232 33.2863C28.9248 33.2989 28.0176 32.2759 27.265 30.8575C25.8445 27.766 24.7694 24.517 23.6527 21.3074C23.1118 19.7538 22.6638 17.1728 21.5271 15.9253L21.6482 25.9822C21.6623 26.9057 21.4832 28.7475 22.6742 29.012C23.4744 29.1896 24.1646 30.2357 24.172 31.1235C24.1817 32.3123 23.4982 33.2937 22.218 33.2298C21.3844 33.1882 20.5865 32.8457 19.7253 32.8494C18.865 32.8532 18.0886 33.2061 17.2416 33.2388C16.0491 33.2848 15.1865 32.5144 15.2163 31.3115C15.2371 30.4682 15.7163 29.5752 16.5655 29.2921C18.1406 28.8961 18.0143 27.6687 17.9771 26.2363C17.9459 23.3877 17.9147 20.5392 17.8835 17.6906C17.885 16.3429 18.0804 15.0085 16.4162 14.9951C15.5543 14.9082 15.061 14.0493 15.0372 13.261C15.0001 12.0463 15.8106 11.1101 17.0024 10.8731C18.8754 10.5009 20.897 10.4526 22.6935 10.0135C23.9692 9.70218 24.9001 10.8337 25.2701 11.9177C26.2382 14.5857 27.0711 17.3013 27.9456 20.0005C28.3995 21.4017 28.7428 23.8848 29.8253 24.9583C29.7852 21.9612 29.7443 18.9641 29.7042 15.9669L29.7034 15.9677Z" fill="var(--fill-0, #D42D78)"/>
<path id="Vector_10" d="M53.3349 18.6991C53.4077 23.9994 52.5027 33.4285 45.2238 33.4255C38.3878 33.4233 36.8082 25.2833 36.7339 20.0312C36.6559 14.5214 38.1129 6.38137 44.836 5.29886C52.0599 4.13611 53.2672 13.7175 53.3349 18.6991ZM48.5583 19.0089C48.5226 16.3951 49.0524 10.2374 44.9118 10.7619C40.9369 11.2657 41.486 16.6648 41.5268 19.5743C41.5647 22.2594 41.1286 27.9914 45.1473 27.8473C49.2463 27.7002 48.5962 21.7973 48.5583 19.0089Z" fill="var(--fill-0, #D42D78)"/>
<path id="Vector_11" d="M64.2416 31.1814C63.749 32.6384 62.8121 33.4088 61.2704 33.3836C59.9621 33.362 59.2585 32.0574 58.8796 30.9801C57.7948 27.234 57.5623 23.1625 57.0377 19.3124C56.7487 17.195 56.4664 15.0716 56.0726 12.9704C55.8802 11.9451 55.7725 10.5261 55.1016 9.67166C54.0443 8.87816 53.1453 8.19166 53.1275 6.73023C53.1111 5.39809 53.6535 4.12166 55.1053 3.98867C55.9508 3.9114 56.7599 4.245 57.6306 4.11275C58.5645 3.97084 59.41 3.44853 60.3246 3.32148C61.61 3.14317 61.9109 4.72718 61.9347 5.69528C61.9584 6.64776 61.4502 7.50664 60.7392 8.12851C60.4175 8.74294 60.4405 9.48517 60.4576 10.1642C60.5267 12.8308 60.8373 15.507 61.1077 18.1586C61.3024 20.0695 62.0521 24.7302 62.0825 24.7309C62.1732 24.7339 62.4369 23.3542 62.5149 22.7353C62.7133 21.161 62.8381 19.5769 62.9607 17.9952C63.2282 14.5604 63.4384 11.1145 63.59 7.67752C63.6673 5.92114 64.3657 3.68108 66.3501 3.48642C68.2975 3.29548 69.1905 5.49765 69.2745 7.16264C69.4491 10.6412 69.8376 14.1934 70.2247 17.6965C70.3926 19.2144 70.5658 20.733 70.7909 22.2442C70.8912 22.9166 71.2664 24.4471 71.2864 24.4464C71.5576 24.4449 71.9663 19.9001 72.0859 18.1608C72.2917 15.1585 72.4611 12.1153 72.4588 9.12557C72.4588 8.44947 72.438 7.68049 72.0309 7.11063C71.1839 6.51626 70.8919 5.72648 70.8585 4.81857C70.8228 3.83265 71.0494 2.11118 72.4403 2.02277C73.265 1.97002 73.9938 2.3898 74.8453 2.2895C75.7301 2.18548 76.5177 1.69883 77.3959 1.59259C78.9688 1.40165 79.4071 2.85044 79.4123 4.14247C79.4183 5.75991 78.523 6.63068 77.5006 7.72656C76.8572 8.77489 76.7302 10.1977 76.5259 11.3857C76.1611 13.5046 75.8943 15.6414 75.6388 17.776C75.1774 21.6313 74.8512 25.5252 74.3341 29.3567C74.0845 31.2059 73.4477 33.3531 71.2485 33.3828C69.8889 33.4014 69.0679 32.2275 68.6593 31.061C67.5656 28.133 67.3784 24.8037 67.0745 21.7189C66.8999 19.9469 66.3026 15.4572 66.3026 15.4572C66.2186 15.4572 66.0217 16.8874 65.9668 17.5434C65.8501 18.9462 65.7691 20.3519 65.6629 21.7553C65.4259 24.8669 65.2959 28.2177 64.2408 31.1822L64.2416 31.1814Z" fill="var(--fill-0, #D42D78)"/>
<path id="Vector_12" d="M93.5106 15.6693C96.3116 17.3335 97.1875 20.8203 97.2158 23.7773C97.2581 28.2998 95.7365 33.2004 90.396 33.1544C88.7808 33.1403 87.0638 32.6001 85.5169 32.6172C84.4686 32.6283 83.3519 33.1098 82.2702 33.1581C80.6795 33.2294 80.1794 31.6595 80.2411 30.3601C80.2909 29.3169 80.5792 27.8392 81.5903 27.4536C83.2301 26.828 83.0176 24.7781 83.0079 23.2313C82.9775 19.1925 82.9478 15.1529 82.9173 11.1134C82.8987 9.51898 83.288 7.48546 81.4299 6.94904C80.3332 6.49657 80.0903 5.19637 80.0279 4.1889C79.9461 2.86493 80.4536 1.28091 82.025 1.24302C82.9663 1.22073 83.9233 1.62268 84.8676 1.59222C86.2993 1.5469 87.705 0.900511 89.1627 0.803182C94.2966 0.459186 96.1177 4.45637 96.1095 8.89637C96.105 11.3118 95.4519 13.9553 93.5106 15.6678V15.6693ZM87.2949 12.953C87.1819 14.0296 87.9442 14.352 88.9108 14.2978C91.2044 14.1707 91.6034 12.3675 91.5944 10.357C91.5855 8.29753 90.9013 6.78707 88.6367 6.89183C87.6262 6.93864 87.2466 7.72767 87.2681 8.66827L87.2956 12.9522L87.2949 12.953ZM87.3736 25.264C87.3655 26.2678 87.7845 27.1527 88.8863 27.1415C91.3834 27.1177 92.2111 25.4713 92.197 23.1555C92.1844 20.9652 91.6063 18.9792 89.0914 18.9971C87.997 19.0052 87.2317 19.3715 87.3432 20.5736C87.3528 22.1369 87.3632 23.7001 87.3729 25.2633L87.3736 25.264Z" fill="var(--fill-0, #D42D78)"/>
<path id="Vector_13" d="M115.193 16.6597C115.19 22.0499 114.503 33.4099 106.875 33.4263C99.2993 33.4426 98.5311 22.0715 98.5125 16.7585C98.4939 11.3994 99.2473 0.0743227 106.83 0.000768576C114.437 -0.0727856 115.196 11.3311 115.193 16.6597ZM110.398 16.6084C110.397 13.878 111.223 6.4557 106.839 6.49285C102.48 6.53 103.326 13.901 103.333 16.65C103.339 19.3537 102.53 26.8116 106.866 26.7968C111.224 26.7812 110.399 19.3269 110.399 16.6084H110.398Z" fill="var(--fill-0, #D42D78)"/>
<path id="Vector_14" d="M127.567 21.9622C125.81 21.9399 124.053 21.9213 122.295 21.905C122.154 22.9875 122.02 24.0752 122.006 25.1621C121.996 26.0091 122.251 26.923 123.043 27.2789C124.115 27.7603 124.361 29.2522 124.406 30.4016C124.454 31.623 123.984 33.1847 122.467 33.1506C121.538 33.129 120.712 32.6231 119.777 32.5985C118.803 32.5733 117.989 33.1223 117.033 33.1498C115.463 33.1951 115.12 31.4804 115.131 30.2478C115.14 29.2336 115.334 28.4134 115.969 27.6295C116.476 27.004 117.048 26.5797 117.246 25.7387C118.162 22.4941 118.653 19.0742 119.225 15.7658C119.94 11.6319 120.462 7.37467 121.656 3.34628C122.248 1.34992 122.983 0.131449 125.2 0.228036C127.375 0.323136 128.225 1.36107 128.822 3.41389C130.007 7.48686 130.527 11.7753 131.215 15.9671C131.698 18.9175 132.192 21.8685 132.747 24.807C132.773 24.8984 132.772 24.9437 132.772 24.989C133.077 27.1533 135.171 28.1645 135.156 30.3986C135.148 31.6223 134.727 33.1922 133.21 33.1535C132.276 33.1298 131.442 32.6275 130.495 32.6067C129.472 32.5837 128.579 33.1216 127.572 33.152C126.032 33.1989 125.656 31.5896 125.652 30.36C125.648 29.3072 125.966 27.7269 126.935 27.3019C127.628 26.998 127.853 26.1547 127.833 25.4363C127.802 24.3189 127.705 23.1138 127.568 21.9629L127.567 21.9622ZM123.153 16.1336C124.386 16.1506 125.619 16.1707 126.852 16.1937C126.55 13.9492 126.234 11.7062 125.863 9.47208C125.689 8.423 125.093 5.90285 125.052 5.90359C124.87 5.90656 124.398 8.41409 124.202 9.54192C123.821 11.7337 123.488 13.9344 123.153 16.1336Z" fill="var(--fill-0, #D42D78)"/>
<path id="Vector_15" d="M146.991 25.1012C146.89 22.9109 146.886 19.942 143.981 19.8885C143.89 19.8855 143.844 19.8841 143.753 19.8811C143.268 19.9101 143.012 20.1248 143.007 20.792C143 21.6226 142.993 22.4525 142.987 23.2832C142.986 24.9028 142.758 27.1265 144.681 27.5329C145.828 27.7752 145.972 29.3792 146.004 30.3785C146.046 31.6795 145.566 33.2345 143.999 33.1587C142.956 33.1082 141.96 32.6438 140.879 32.6208C139.787 32.597 138.809 33.1089 137.752 33.155C136.142 33.2256 135.684 31.6067 135.764 30.3102C135.829 29.2633 136.132 27.7595 137.156 27.3918C138.805 26.7996 138.622 24.7297 138.634 23.1881C138.662 19.1322 138.691 15.0763 138.719 11.0204C138.723 9.34427 139.107 7.41255 137.292 6.68072C136.275 6.19853 135.919 4.72968 135.931 3.72593C135.945 2.42276 136.366 0.817195 137.97 1.00145C138.929 1.11141 139.875 1.65972 140.805 1.72213C142.153 1.81129 143.682 1.39968 145.105 1.49999C150.262 1.86404 152.216 5.87088 152.148 10.4981C152.112 12.9202 151.55 15.6558 149.431 17.2331C151.157 18.5415 151.623 20.8536 151.88 22.8723C151.983 23.6851 151.907 26.3962 152.954 26.498C153.282 26.5299 153.5 26.2045 153.796 26.2573C154.448 26.3739 154.639 27.3896 154.616 28.085C154.544 30.3235 153.282 33.1624 150.678 33.1632C147.199 33.1632 147.098 27.4052 146.991 25.1005V25.1012ZM143.066 13.3192C142.951 14.3705 143.708 14.7472 144.661 14.7694C146.942 14.8222 147.378 13.0309 147.398 11.068C147.418 9.00102 146.692 7.54405 144.493 7.39843C143.493 7.33231 143.091 8.08048 143.101 9.00399C143.089 10.4424 143.078 11.8808 143.066 13.3192Z" fill="var(--fill-0, #D42D78)"/>
<path id="Vector_16" d="M157.077 33.1707C155.512 33.2375 155.011 31.7508 155.1 30.4603C155.17 29.4469 155.495 28.0256 156.502 27.6927C158.138 27.1533 157.976 25.2417 157.996 23.7201C158.039 19.8745 158.082 16.0288 158.124 12.1832C158.135 10.5108 158.478 8.75813 156.716 8.00995C155.668 7.43787 155.42 6.1919 155.369 5.1406C155.307 3.86195 155.851 2.39829 157.413 2.64422C158.468 2.8099 159.438 3.39388 160.518 3.49641C161.777 3.61602 163.058 3.24008 164.321 3.40205C171.486 4.32036 172.733 13.1543 172.655 18.867C172.584 24.1198 171.223 33.2866 164.186 33.2182C162.887 33.2056 161.561 32.7204 160.282 32.6662C159.202 32.6209 158.155 33.1239 157.077 33.1699L157.077 33.1707ZM168.006 18.5C168.047 15.0897 168.218 9.62517 163.897 8.98027C162.238 8.73286 162.497 11.6015 162.478 12.5294L162.343 23.8783C162.34 25.1495 162.035 27.6496 163.899 27.643C168.298 27.6281 167.969 21.5766 168.006 18.5Z" fill="var(--fill-0, #D42D78)"/>
<path id="Vector_17" d="M180.633 24.6993C180.607 26.1941 180.461 27.825 182.056 28.3428C182.912 28.6207 183.388 29.9253 183.367 30.8303C183.337 32.1074 182.796 33.2516 181.354 33.1974C180.354 33.1602 179.374 32.71 178.389 32.7286C177.389 32.7471 176.37 33.1469 175.361 33.1899C173.87 33.2531 173.343 32.0101 173.388 30.6787C173.422 29.695 173.799 28.5516 174.794 28.1682C176.564 27.7202 176.263 26.0247 176.292 24.4816L176.437 13.8497C176.457 12.2523 176.772 10.6415 175.04 9.98103C174.075 9.44683 173.714 8.26625 173.702 7.22535C173.688 5.90732 174.252 4.72525 175.743 5.01575C176.769 5.21561 177.748 5.76987 178.758 5.94966C179.719 6.12055 180.757 5.84119 181.733 5.96675C183.155 6.14952 183.672 7.36577 183.677 8.67042C183.679 9.5397 183.216 10.6296 182.299 10.8912C180.507 11.1401 180.807 12.8586 180.778 14.3267C180.729 17.7844 180.682 21.2422 180.634 24.6993H180.633Z" fill="var(--fill-0, #D42D78)"/>
<path id="Vector_18" d="M199.21 16.7038C199.233 15.6079 199.424 13.9429 198.291 13.356C197.446 12.9184 196.896 11.9228 196.855 10.9198C196.804 9.69535 197.552 8.83944 198.825 9.16487C199.697 9.38776 200.454 9.89446 201.34 10.0928C202.163 10.2771 202.971 10.0661 203.786 10.2295C205.055 10.4836 205.766 11.3826 205.752 12.6613C205.742 13.4756 205.247 14.3582 204.369 14.4622C202.687 14.4563 202.905 15.9348 202.896 17.2491C202.846 21.5279 202.795 25.8074 202.745 30.0862C202.788 32.2103 201.757 33.2802 199.685 33.2921C197.984 33.3018 197.108 32.3002 196.391 30.8559C194.984 27.5467 194.017 24.0466 193.036 20.5932C192.513 18.7514 192.248 15.8085 191.059 14.2557C191.009 17.9275 190.958 21.5992 190.908 25.271C190.897 26.2614 190.648 28.2785 191.851 28.6679C192.666 28.9309 193.312 30.0736 193.292 31.003C193.264 32.2653 192.665 33.2542 191.282 33.2119C190.426 33.1859 189.664 32.7787 188.799 32.7728C187.923 32.7661 187.156 33.1717 186.305 33.2044C184.87 33.2594 184.284 32.1687 184.332 30.8455C184.366 29.8938 184.771 28.8358 185.736 28.4962C187.465 28.1173 187.202 26.5526 187.231 25.057C187.277 21.7411 187.323 18.426 187.37 15.1101C187.405 13.5365 187.643 12.0944 185.974 11.448C185.041 10.9391 184.652 9.83428 184.639 8.82087C184.623 7.5073 185.244 6.508 186.673 6.81708C188.591 7.23166 190.448 7.93005 192.383 8.30153C193.822 8.57718 194.54 10.0111 194.901 11.2935C195.757 14.2453 196.521 17.2224 197.355 20.1802C197.776 21.6743 198.043 24.1238 199.101 25.3163C199.137 22.4455 199.173 19.5754 199.21 16.7045V16.7038Z" fill="var(--fill-0, #D42D78)"/>
<path id="Vector_19" d="M219.641 33.2656C218.522 33.276 217.872 31.9148 217.49 31.8807C216.827 31.8212 215.155 33.4149 213.521 33.4268C207.746 33.4699 205.983 27.0343 206.074 22.3342C206.173 17.1884 208.119 10.9727 214.531 12.605C217.329 13.3168 220.984 15.6319 221.021 18.9247C221.039 20.4664 219.97 21.5615 218.4 21.3283C217.299 21.1648 216.913 20.3914 216.925 19.398C216.944 17.8014 215.662 16.7404 214.127 16.4291C210.731 15.7396 210.747 20.0132 210.727 22.2614C210.706 24.5847 210.567 29.2721 213.805 29.2951C215.039 29.304 216.683 28.9021 216.754 27.3485C216.8 26.3396 216.054 25.7341 215.122 25.5461C214.221 25.3648 213.794 24.5134 213.797 23.5988C213.799 22.4724 214.685 21.8253 215.776 22.0497C216.826 22.2651 217.911 22.6656 218.972 22.8283C219.901 22.971 220.899 22.8023 221.841 22.9219C222.859 23.0512 223.668 23.685 223.652 24.792C223.639 25.6925 222.975 26.0476 222.416 26.1613C221.282 26.3923 221.129 27.0454 221.15 28.2156C221.169 29.2476 221.36 30.336 221.397 31.3279C221.436 32.3651 220.696 33.2544 219.641 33.2641L219.641 33.2656Z" fill="var(--fill-0, #D42D78)"/>
<path id="Vector_20" d="M90.5255 52.6657C90.5255 54.6718 91.0077 54.7475 92.481 55.0016C93.1155 55.1287 93.8265 55.7379 93.8265 56.6518C93.8265 57.7692 93.2173 58.2514 91.8457 58.2514C90.9571 58.2514 89.8902 57.9468 88.3672 57.9468C86.8441 57.9468 85.6754 58.2514 84.8886 58.2514C83.4918 58.2514 82.8825 57.7692 82.8825 56.6518C82.8825 55.7379 83.6188 55.1539 84.2541 55.0269C85.5743 54.7475 86.1836 54.3159 86.1836 52.4369V44.794C86.1836 43.5242 86.0565 43.499 84.9643 43.499C83.8722 43.499 83.5423 43.8548 83.5423 45.0986C83.5423 45.4797 83.6946 46.0637 83.6946 46.4441C83.6946 47.1046 83.0854 47.8409 81.7138 47.8409C80.1395 47.8409 79.6573 46.7747 79.6573 45.2761C79.6573 41.2388 79.6573 40.0961 81.5868 40.0961C82.9323 40.0961 83.6946 40.4008 88.3411 40.4008C92.9877 40.4008 93.7752 40.0961 95.1208 40.0961C97.0503 40.0961 97.0503 41.2388 97.0503 45.2761C97.0503 46.774 96.5428 47.8409 94.9937 47.8409C93.6222 47.8409 93.013 47.1046 93.013 46.4441C93.013 46.063 93.14 45.479 93.14 45.0986C93.14 43.8541 92.8606 43.499 91.7432 43.499C90.6258 43.499 90.524 43.5242 90.524 44.794V52.6657H90.5255Z" fill="var(--fill-0, #D42D78)"/>
<path id="Vector_21" d="M109.087 53.6049C108.935 51.9287 108.859 50.659 106.041 50.659H105.812C105.33 50.6842 105.075 50.8113 105.075 51.1924V52.6145C105.075 54.7475 105.33 54.8746 106.802 55.0269C107.437 55.1034 108.148 55.4838 108.148 56.6518C108.148 57.8197 107.538 58.2514 106.167 58.2514C105.354 58.2514 104.542 57.9468 103.043 57.9468C101.545 57.9468 100.783 58.2514 99.92 58.2514C98.5232 58.2514 97.9139 57.7692 97.9139 56.6518C97.9139 55.7379 98.6502 55.1279 99.2855 55.0016C100.733 54.7475 100.733 54.6205 100.733 52.6145V45.7331C100.733 43.6253 100.606 43.6253 99.2855 43.3206C98.651 43.1936 97.9139 42.6096 97.9139 41.6958C97.9139 40.5783 98.5232 40.0961 99.92 40.0961C100.707 40.0961 101.824 40.4008 102.739 40.4008C104.415 40.4008 105.659 40.0961 107.005 40.0961C111.246 40.0961 114.089 41.2136 114.089 44.9968C114.089 47.0281 112.972 48.3231 111.449 49.0088C114.952 50.5074 113.404 54.3411 115.054 54.3411C115.41 54.3411 115.536 54.1888 115.892 54.1888C116.401 54.1888 116.73 54.6205 116.73 55.255C116.73 56.0678 115.994 58.2514 112.845 58.2514C110.637 58.2514 109.367 56.8799 109.087 53.6049ZM105.075 46.927C105.075 47.4605 105.202 47.7138 106.675 47.7138C108.859 47.7138 109.367 47.0533 109.367 45.505C109.367 43.9566 108.706 43.499 106.447 43.499C105.482 43.499 105.075 43.7531 105.075 44.4641V46.927Z" fill="var(--fill-0, #D42D78)"/>
<path id="Vector_22" d="M124.4 52.6145C124.4 54.6205 124.4 54.7475 125.872 55.0016C126.507 55.1287 127.218 55.7379 127.218 56.6518C127.218 57.7692 126.634 58.2514 125.237 58.2514C124.348 58.2514 123.764 57.9468 122.266 57.9468C120.767 57.9468 120.031 58.2514 119.244 58.2514C117.847 58.2514 117.238 57.7692 117.238 56.6518C117.238 55.7379 117.974 55.1539 118.61 55.0269C119.93 54.7475 120.057 54.7475 120.057 52.6145V45.7331C120.057 43.7523 120.057 43.6253 118.61 43.3459C117.975 43.2189 117.238 42.6096 117.238 41.6958C117.238 40.5783 117.847 40.0961 119.244 40.0961C120.107 40.0961 120.717 40.4008 122.266 40.4008C123.815 40.4008 124.424 40.0961 125.237 40.0961C126.634 40.0961 127.218 40.5783 127.218 41.6958C127.218 42.6096 126.507 43.1683 125.872 43.3206C124.527 43.6253 124.4 43.6253 124.4 45.7331V52.6145Z" fill="var(--fill-0, #D42D78)"/>
<path id="Vector_23" d="M136.307 51.6493C135.698 51.6493 135.342 51.7511 135.342 52.1828V52.6145C135.342 54.7475 135.825 54.8746 137.298 55.0269C137.958 55.1034 138.643 55.4838 138.643 56.6518C138.643 57.8197 138.059 58.2514 136.663 58.2514C135.85 58.2514 134.936 57.9468 133.438 57.9468C131.94 57.9468 131.051 58.2514 130.188 58.2514C128.791 58.2514 128.182 57.7692 128.182 56.6518C128.182 55.7379 128.918 55.1279 129.553 55.0016C131 54.7475 131 54.6205 131 52.6145V45.7331C131 43.6253 130.873 43.6253 129.553 43.3206C128.919 43.1936 128.182 42.6096 128.182 41.6958C128.182 40.5783 128.791 40.0961 130.188 40.0961C130.974 40.0961 132.092 40.4008 133.006 40.4008C134.683 40.4008 135.926 40.0961 137.273 40.0961C141.513 40.0961 144.433 42.1527 144.433 46.19C144.433 47.1804 144.027 51.7251 138.517 51.7251C137.628 51.7251 136.867 51.6486 136.308 51.6486L136.307 51.6493ZM135.342 44.6914V47.9159C135.342 48.4746 135.469 48.7027 136.942 48.7027C139.126 48.7027 139.71 48.3728 139.71 46.1893C139.71 43.8021 139.328 43.4975 136.586 43.4975C135.596 43.4975 135.342 43.9797 135.342 44.6907L135.342 44.6914Z" fill="var(--fill-0, #D42D78)"/>
<path id="Vector_24" d="M25.4361 69.7059C25.4361 70.697 25.6746 70.7349 26.4027 70.8605C26.7163 70.9229 27.0677 71.2245 27.0677 71.6762C27.0677 72.2283 26.7668 72.4668 26.0892 72.4668C25.6501 72.4668 25.1226 72.3159 24.37 72.3159C23.6173 72.3159 23.0401 72.4668 22.6507 72.4668C21.9605 72.4668 21.6596 72.2283 21.6596 71.6762C21.6596 71.2245 22.0237 70.9362 22.3372 70.8731C22.9895 70.7349 23.2912 70.5217 23.2912 69.593V65.8157C23.2912 65.1879 23.2288 65.176 22.6886 65.176C22.1485 65.176 21.9858 65.3513 21.9858 65.9665C21.9858 66.1545 22.0608 66.4435 22.0608 66.6315C22.0608 66.9576 21.7599 67.3217 21.0823 67.3217C20.3044 67.3217 20.0659 66.7949 20.0659 66.0542C20.0659 64.0586 20.0659 63.4939 21.0199 63.4939C21.6849 63.4939 22.0616 63.6447 24.3581 63.6447C26.6546 63.6447 27.0432 63.4939 27.7089 63.4939C28.6629 63.4939 28.6629 64.0586 28.6629 66.0542C28.6629 66.7942 28.4117 67.3217 27.6465 67.3217C26.9689 67.3217 26.668 66.9576 26.668 66.6315C26.668 66.4435 26.7304 66.1545 26.7304 65.9665C26.7304 65.3513 26.5922 65.176 26.0402 65.176C25.4882 65.176 25.4376 65.1886 25.4376 65.8157V69.7059H25.4361Z" fill="var(--fill-0, #D42D78)"/>
<path id="Vector_25" d="M35.5886 69.0786C35.5886 70.9858 34.5849 72.5297 32.2126 72.5297C29.8403 72.5297 28.8499 70.9858 28.8499 69.0786C28.8499 67.1714 29.8536 65.6275 32.2126 65.6275C34.5715 65.6275 35.5886 67.1706 35.5886 69.0786ZM33.4303 69.0786C33.4303 67.8111 33.33 67.1587 32.2133 67.1587C31.0966 67.1587 30.9963 67.8111 30.9963 69.0786C30.9963 70.3461 31.1093 70.9984 32.2133 70.9984C33.3174 70.9984 33.4303 70.3461 33.4303 69.0786Z" fill="var(--fill-0, #D42D78)"/>
<path id="Vector_26" d="M39.1396 70.2708C39.1396 70.9231 39.1649 70.9358 39.5534 71.0739C39.8298 71.1742 39.9925 71.3749 39.9925 71.7515C39.9925 72.2538 39.7162 72.467 39.2525 72.467C38.8506 72.467 38.6626 72.3415 37.9598 72.3415C37.2569 72.3415 37.144 72.467 36.7799 72.467C36.1402 72.467 35.8639 72.2538 35.8639 71.7515C35.8639 71.3377 36.2027 71.0739 36.4917 71.0234C37.1566 70.8979 37.1566 70.86 37.1566 69.9439V65.1502C37.1566 64.2089 37.1061 64.2089 36.4917 64.2089C36.1908 64.2089 35.8639 64.0454 35.8639 63.6442C35.8639 63.142 36.4285 62.8285 37.5452 62.8285C38.8877 62.8285 39.1389 63.2423 39.1389 64.7104V68.4245C39.7162 68.0233 40.5193 67.4208 40.5193 67.1444C40.5193 67.0939 40.4941 67.0567 40.4443 67.0314C40.1679 66.9059 39.8922 66.7432 39.8922 66.4044C39.8922 65.9021 40.1679 65.6889 40.6322 65.6889C41.0334 65.6889 41.2348 65.8145 41.925 65.8145C42.6152 65.8145 42.7408 65.6889 43.1049 65.6889C43.7445 65.6889 44.0209 65.9021 44.0209 66.4044C44.0209 67.0946 43.1427 67.1696 42.8664 67.3078C42.6026 67.4334 42.0885 67.7974 41.4985 68.2492C42.0885 69.1653 43.1301 70.6334 43.9704 70.9722C44.4095 71.1475 44.6606 71.3362 44.6606 71.7501C44.6606 72.1891 44.4221 72.4655 43.7824 72.4655C43.4058 72.4655 43.1546 72.34 42.4525 72.34C41.7504 72.34 41.5617 72.4655 41.1598 72.4655C40.6954 72.4655 40.4198 72.2523 40.4198 71.7501C40.4198 71.3734 40.5958 71.198 40.8715 71.0725C40.9465 71.0346 40.9718 70.9848 40.9718 70.909C40.9718 70.5828 40.3692 69.8926 39.9554 69.4535L39.1396 70.1185V70.2693V70.2708Z" fill="var(--fill-0, #D42D78)"/>
<path id="Vector_27" d="M46.6074 70.6098C45.955 69.1417 45.7789 67.7107 45.189 67.2969C44.9379 67.1334 44.2856 67.0963 44.2856 66.4061C44.2856 65.9038 44.562 65.6906 45.2016 65.6906C45.5783 65.6906 45.8413 65.8161 46.5316 65.8161C47.2218 65.8161 47.5479 65.6906 47.9499 65.6906C48.4143 65.6906 48.6899 65.9038 48.6899 66.4061C48.6899 66.7449 48.4143 66.9083 48.1379 67.0331C48.0123 67.0955 47.9625 67.3095 47.9625 67.6104C47.9625 68.577 48.7025 70.5845 48.9284 70.5845C49.1669 70.5845 49.7568 68.6773 49.7568 67.5978C49.7568 67.2969 49.7063 67.0955 49.5807 67.0331C49.3051 66.9076 49.0413 66.7449 49.0413 66.4061C49.0413 65.9038 49.317 65.6906 49.7813 65.6906C50.1825 65.6906 50.2836 65.8161 50.9857 65.8161C51.6878 65.8161 51.8015 65.6906 52.1655 65.6906C52.806 65.6906 53.0816 65.9038 53.0816 66.4061C53.0816 67.0963 52.404 67.0963 52.1781 67.2969C51.5882 67.8615 50.421 71.8141 50.0949 72.7807C49.7561 73.7592 48.9655 75.127 47.0576 75.127C45.1496 75.127 44.6355 74.2362 44.6355 73.6084C44.6355 72.9308 45.0872 72.4665 45.7522 72.4665C46.3674 72.4665 46.6935 72.6797 46.6935 73.0438C46.6935 73.1441 46.643 73.2823 46.643 73.4204C46.643 73.5839 46.7433 73.7213 47.195 73.7213C47.672 73.7213 47.935 73.5958 47.935 73.0943C47.935 72.4665 47.3704 72.329 46.6051 70.6098H46.6074Z" fill="var(--fill-0, #D42D78)"/>
<path id="Vector_28" d="M59.8823 69.0786C59.8823 70.9858 58.8786 72.5297 56.507 72.5297C54.1355 72.5297 53.1436 70.9858 53.1436 69.0786C53.1436 67.1714 54.1473 65.6275 56.507 65.6275C58.8667 65.6275 59.8823 67.1706 59.8823 69.0786ZM57.724 69.0786C57.724 67.8111 57.6237 67.1587 56.507 67.1587C55.3903 67.1587 55.29 67.8111 55.29 69.0786C55.29 70.3461 55.403 70.9984 56.507 70.9984C57.6111 70.9984 57.724 70.3461 57.724 69.0786Z" fill="var(--fill-0, #D42D78)"/>
<path id="Vector_29" d="M64.7272 69.5682C64.0994 69.5682 63.7606 69.242 63.7606 68.69C63.7606 68.1379 64.0994 67.8118 64.7272 67.8118H67.2994C67.9398 67.8118 68.2779 68.1379 68.2779 68.69C68.2779 69.242 67.9391 69.5682 67.2994 69.5682H64.7272Z" fill="var(--fill-0, #D42D78)"/>
<path id="Vector_30" d="M78.4295 68.7014H75.6188V69.6799C75.6188 70.671 75.6314 70.7594 76.1084 70.8597C76.422 70.9348 76.7734 71.2238 76.7734 71.6755C76.7734 72.2275 76.4851 72.466 75.7949 72.466C75.3558 72.466 75.1923 72.3152 74.4397 72.3152C73.6871 72.3152 73.4612 72.466 73.0719 72.466C72.3817 72.466 72.0808 72.2275 72.0808 71.6755C72.0808 71.2238 72.4448 70.9355 72.7584 70.8724C73.4107 70.7342 73.4739 70.7342 73.4739 69.6806V66.28C73.4739 65.3016 73.4739 65.2384 72.7584 65.1002C72.4448 65.0378 72.0808 64.7362 72.0808 64.2844C72.0808 63.7324 72.3817 63.4939 73.0719 63.4939C73.4984 63.4939 73.6745 63.6447 74.4397 63.6447C75.205 63.6447 75.3937 63.4939 75.7949 63.4939C76.4851 63.4939 76.7734 63.7324 76.7734 64.2844C76.7734 64.7362 76.422 64.9999 76.1084 65.0876C75.6567 65.2258 75.6188 65.2384 75.6188 66.28V67.0579H78.4295V66.28C78.4295 65.2384 78.3916 65.2258 77.9398 65.0876C77.6389 64.9999 77.2749 64.7362 77.2749 64.2844C77.2749 63.7324 77.5758 63.4939 78.2534 63.4939C78.6553 63.4939 78.8686 63.6447 79.6086 63.6447C80.3486 63.6447 80.5499 63.4939 80.989 63.4939C81.6792 63.4939 81.9675 63.7324 81.9675 64.2844C81.9675 64.7362 81.6034 65.0371 81.2899 65.1002C80.5744 65.2384 80.5744 65.3008 80.5744 66.28V69.6806C80.5744 70.7349 80.6376 70.7349 81.2899 70.8724C81.6034 70.9348 81.9675 71.2238 81.9675 71.6755C81.9675 72.2275 81.6792 72.466 80.989 72.466C80.5878 72.466 80.3738 72.3152 79.6086 72.3152C78.8433 72.3152 78.6925 72.466 78.2534 72.466C77.5758 72.466 77.2749 72.2275 77.2749 71.6755C77.2749 71.2238 77.6389 70.9355 77.9398 70.8597C78.4168 70.7594 78.4295 70.6717 78.4295 69.6799V68.7014Z" fill="var(--fill-0, #D42D78)"/>
<path id="Vector_31" d="M82.4206 70.6968C82.4206 69.1283 83.7134 68.5005 86.3108 68.4381C86.2982 67.1959 86.1979 66.895 85.5077 66.895C84.8553 66.895 84.6919 67.1082 84.6919 67.6855C84.6919 68.0748 84.4036 68.2628 83.989 68.2628C83.3115 68.2628 82.885 67.8237 82.885 67.1587C82.885 66.7575 83.2111 65.6275 85.6585 65.6275C87.5657 65.6275 88.3317 66.3675 88.3317 67.9619V70.1952C88.3317 70.8981 88.357 70.9858 89.0093 70.9858C89.2099 70.9858 89.4231 71.0237 89.4231 71.3372C89.4231 71.6507 89.2478 72.5289 88.143 72.5289C87.6281 72.5289 87.0508 72.3283 86.7499 71.7131C86.2729 72.1901 85.5574 72.5289 84.5039 72.5289C82.697 72.5289 82.4206 71.3491 82.4206 70.6968ZM84.4534 70.3706C84.4534 70.8602 84.6421 71.0229 85.3947 71.0229C86.1474 71.0229 86.3361 70.3201 86.3361 69.5295C84.7045 69.5295 84.4534 69.8936 84.4534 70.3706Z" fill="var(--fill-0, #D42D78)"/>
<path id="Vector_32" d="M92.8832 70.2708C92.8832 70.9231 92.9085 70.9358 93.2971 71.0739C93.5735 71.1742 93.7362 71.3749 93.7362 71.7515C93.7362 72.2538 93.4598 72.467 92.9962 72.467C92.5942 72.467 92.4063 72.3415 91.7034 72.3415C91.0006 72.3415 90.8876 72.467 90.5236 72.467C89.8839 72.467 89.6075 72.2538 89.6075 71.7515C89.6075 71.3377 89.9463 71.0739 90.2353 71.0234C90.9003 70.8979 90.9003 70.86 90.9003 69.9439V65.1502C90.9003 64.2089 90.8497 64.2089 90.2353 64.2089C89.9344 64.2089 89.6075 64.0454 89.6075 63.6442C89.6075 63.142 90.1721 62.8285 91.2888 62.8285C92.6314 62.8285 92.8825 63.2423 92.8825 64.7104V68.4245C93.4598 68.0233 94.2629 67.4208 94.2629 67.1444C94.2629 67.0939 94.2377 67.0567 94.1879 67.0314C93.9115 66.9059 93.6359 66.7432 93.6359 66.4044C93.6359 65.9021 93.9115 65.6889 94.3759 65.6889C94.7771 65.6889 94.9784 65.8145 95.6686 65.8145C96.3589 65.8145 96.4844 65.6889 96.8485 65.6889C97.4882 65.6889 97.7646 65.9021 97.7646 66.4044C97.7646 67.0946 96.8864 67.1696 96.61 67.3078C96.3462 67.4334 95.8321 67.7974 95.2422 68.2492C95.8321 69.1653 96.8737 70.6334 97.714 70.9722C98.1531 71.1475 98.4043 71.3362 98.4043 71.7501C98.4043 72.1891 98.1658 72.4655 97.5261 72.4655C97.1494 72.4655 96.8983 72.34 96.1962 72.34C95.494 72.34 95.3053 72.4655 94.9034 72.4655C94.439 72.4655 94.1634 72.2523 94.1634 71.7501C94.1634 71.3734 94.3395 71.198 94.6151 71.0725C94.6901 71.0346 94.7154 70.9848 94.7154 70.909C94.7154 70.5828 94.1129 69.8926 93.699 69.4535L92.8832 70.1185V70.2693V70.2708Z" fill="var(--fill-0, #D42D78)"/>
<path id="Vector_33" d="M101.43 69.9448C101.43 70.6848 101.694 70.8988 102.41 70.8988C103.125 70.8988 103.351 70.5979 103.351 69.9701V68.0124C103.351 67.071 103.3 67.071 102.686 67.071C102.385 67.071 102.058 66.9076 102.058 66.5064C102.058 66.0041 102.623 65.6906 103.74 65.6906C105.082 65.6906 105.333 66.1044 105.333 67.5733V70.1959C105.333 70.8988 105.359 70.9865 106.011 70.9865C106.211 70.9865 106.425 71.0244 106.425 71.3379C106.425 71.6514 106.249 72.5296 105.145 72.5296C104.63 72.5296 104.028 72.3164 103.727 71.6759C103.237 72.2406 102.459 72.5296 101.769 72.5296C100.163 72.5296 99.3977 71.7265 99.3977 70.3966C99.3977 70.3713 99.4482 68.2256 99.4482 67.7486C99.4482 67.071 99.3353 67.071 98.7832 67.071C98.4823 67.071 98.1554 66.9076 98.1554 66.5064C98.1554 66.0041 98.7201 65.6906 99.8368 65.6906C101.179 65.6906 101.43 66.1044 101.43 67.5733V69.9448Z" fill="var(--fill-0, #D42D78)"/>
<path id="Vector_34" d="M109.046 71.6379C108.758 72.2657 108.218 72.4663 107.741 72.4663C107.214 72.4663 106.976 72.178 106.976 71.8511C106.976 71.412 107.44 71.1988 107.44 69.1534V65.1502C107.44 64.2089 107.352 64.2089 106.775 64.2089C106.474 64.2089 106.135 64.0454 106.135 63.6442C106.135 63.142 106.713 62.8285 107.817 62.8285C109.172 62.8285 109.423 63.2423 109.423 64.7104V66.2914C109.875 65.865 110.477 65.6265 111.217 65.6265C112.61 65.6265 113.928 66.605 113.928 69.0776C113.928 71.5502 112.61 72.5287 111.179 72.5287C110.326 72.5287 109.56 72.2404 109.046 71.6379ZM109.448 68.9899C109.448 70.2448 109.8 70.747 110.69 70.747C111.419 70.747 111.782 70.4209 111.782 68.9899C111.782 67.735 111.481 67.3212 110.69 67.3212C109.9 67.3212 109.448 67.735 109.448 68.9899Z" fill="var(--fill-0, #D42D78)"/>
<path id="Vector_35" d="M114.519 70.6968C114.519 69.1283 115.811 68.5005 118.409 68.4381C118.396 67.1959 118.296 66.895 117.606 66.895C116.953 66.895 116.79 67.1082 116.79 67.6855C116.79 68.0748 116.502 68.2628 116.087 68.2628C115.409 68.2628 114.983 67.8237 114.983 67.1587C114.983 66.7575 115.309 65.6275 117.756 65.6275C119.664 65.6275 120.43 66.3675 120.43 67.9619V70.1952C120.43 70.8981 120.455 70.9858 121.107 70.9858C121.308 70.9858 121.521 71.0237 121.521 71.3372C121.521 71.6507 121.346 72.5289 120.241 72.5289C119.726 72.5289 119.149 72.3283 118.848 71.7131C118.371 72.1901 117.655 72.5289 116.602 72.5289C114.795 72.5289 114.519 71.3491 114.519 70.6968ZM116.551 70.3706C116.551 70.8602 116.74 71.0229 117.493 71.0229C118.245 71.0229 118.434 70.3201 118.434 69.5295C116.803 69.5295 116.551 69.8936 116.551 70.3706Z" fill="var(--fill-0, #D42D78)"/>
<path id="Vector_36" d="M126.176 69.5682C125.549 69.5682 125.21 69.242 125.21 68.69C125.21 68.1379 125.549 67.8118 126.176 67.8118H128.748C129.389 67.8118 129.727 68.1379 129.727 68.69C129.727 69.242 129.388 69.5682 128.748 69.5682H126.176Z" fill="var(--fill-0, #D42D78)"/>
<path id="Vector_37" d="M137.067 67.5097C137.908 66.8068 139.363 65.5393 139.363 65.2005C139.363 64.887 138.748 64.8238 138.748 64.2971C138.748 63.7324 139.049 63.4939 139.551 63.4939C139.978 63.4939 140.103 63.6321 140.718 63.6321C141.334 63.6321 141.622 63.4939 142.011 63.4939C142.488 63.4939 142.852 63.7324 142.852 64.2971C142.852 64.8617 142.25 65.1507 141.961 65.3008C141.484 65.5646 140.468 66.4301 139.614 67.208C141.949 67.7103 141.12 70.5336 142.337 70.5336C142.501 70.5336 142.576 70.4585 142.739 70.4585C142.99 70.4585 143.165 70.6717 143.165 70.9853C143.165 71.3872 142.788 72.466 141.245 72.466C140.141 72.466 139.526 71.7884 139.287 70.22C139.111 69.0654 138.911 68.6642 137.882 68.6642C137.267 68.6642 137.091 68.9904 137.066 69.2668V69.6806C137.066 70.6717 137.204 70.7349 137.931 70.8724C138.232 70.9229 138.596 71.2238 138.596 71.6755C138.596 72.2275 138.296 72.466 137.618 72.466C137.179 72.466 136.752 72.3152 136.012 72.3152C135.271 72.3152 134.908 72.466 134.518 72.466C133.828 72.466 133.527 72.2275 133.527 71.6755C133.527 71.2238 133.891 70.9355 134.205 70.8724C134.857 70.7342 134.92 70.7342 134.92 69.6806V66.28C134.92 65.3016 134.92 65.2384 134.205 65.1002C133.891 65.0378 133.527 64.7362 133.527 64.2844C133.527 63.7324 133.828 63.4939 134.518 63.4939C134.945 63.4939 135.246 63.6447 136.012 63.6447C136.777 63.6447 136.966 63.4939 137.367 63.4939C138.044 63.4939 138.345 63.7324 138.345 64.2844C138.345 64.7362 137.981 65.0125 137.68 65.0876C137.166 65.2131 137.065 65.2384 137.065 66.28V67.5097H137.067Z" fill="var(--fill-0, #D42D78)"/>
<path id="Vector_38" d="M143.529 70.6968C143.529 69.1283 144.822 68.5005 147.42 68.4381C147.407 67.1959 147.307 66.895 146.617 66.895C145.964 66.895 145.801 67.1082 145.801 67.6855C145.801 68.0748 145.512 68.2628 145.098 68.2628C144.42 68.2628 143.994 67.8237 143.994 67.1587C143.994 66.7575 144.32 65.6275 146.767 65.6275C148.675 65.6275 149.441 66.3675 149.441 67.9619V70.1952C149.441 70.8981 149.466 70.9858 150.118 70.9858C150.319 70.9858 150.532 71.0237 150.532 71.3372C150.532 71.6507 150.357 72.5289 149.252 72.5289C148.737 72.5289 148.16 72.3283 147.859 71.7131C147.382 72.1901 146.666 72.5289 145.613 72.5289C143.806 72.5289 143.529 71.3491 143.529 70.6968ZM145.562 70.3706C145.562 70.8602 145.751 71.0229 146.504 71.0229C147.256 71.0229 147.445 70.3201 147.445 69.5295C145.813 69.5295 145.562 69.8936 145.562 70.3706Z" fill="var(--fill-0, #D42D78)"/>
<path id="Vector_39" d="M154.059 70.0578C154.059 70.7733 154.298 70.861 155.113 71.0118C155.527 71.0868 155.729 71.3253 155.729 71.7399C155.729 72.2421 155.453 72.4554 154.813 72.4554C154.411 72.4554 153.871 72.3298 153.169 72.3298C152.467 72.3298 152.065 72.4554 151.701 72.4554C151.061 72.4554 150.785 72.2421 150.785 71.7399C150.785 71.3261 151.124 71.0749 151.412 71.0118C152.027 70.8862 152.077 70.8862 152.077 69.9322V68.0124C152.077 67.0711 152.002 67.0711 151.412 67.0711C151.111 67.0711 150.785 66.9076 150.785 66.5064C150.785 66.0042 151.35 65.6906 152.466 65.6906C153.169 65.6906 153.521 66.0168 153.709 66.4685C154.211 65.9165 154.976 65.6275 155.666 65.6275C157.172 65.6275 157.548 66.6691 157.548 67.447C157.548 68.1246 157.096 68.664 156.444 68.664C155.792 68.664 155.49 68.4508 155.49 68.0867C155.49 67.9864 155.541 67.8482 155.541 67.71C155.541 67.2457 155.415 67.0324 154.888 67.0324C154.198 67.0324 154.06 67.3088 154.06 68.2249V70.0571L154.059 70.0578Z" fill="var(--fill-0, #D42D78)"/>
<path id="Vector_40" d="M160.972 69.9448C160.972 70.6848 161.236 70.8988 161.952 70.8988C162.667 70.8988 162.893 70.5979 162.893 69.9701V68.0124C162.893 67.071 162.842 67.071 162.228 67.071C161.927 67.071 161.6 66.9076 161.6 66.5064C161.6 66.0041 162.165 65.6906 163.282 65.6906C164.624 65.6906 164.875 66.1044 164.875 67.5733V70.1959C164.875 70.8988 164.9 70.9865 165.553 70.9865C165.753 70.9865 165.967 71.0244 165.967 71.3379C165.967 71.6514 165.791 72.5296 164.687 72.5296C164.172 72.5296 163.57 72.3164 163.269 71.6759C162.779 72.2406 162.001 72.5296 161.311 72.5296C159.705 72.5296 158.94 71.7265 158.94 70.3966C158.94 70.3713 158.99 68.2256 158.99 67.7486C158.99 67.071 158.877 67.071 158.325 67.071C158.024 67.071 157.697 66.9076 157.697 66.5064C157.697 66.0041 158.262 65.6906 159.379 65.6906C160.721 65.6906 160.972 66.1044 160.972 67.5733V69.9448Z" fill="var(--fill-0, #D42D78)"/>
<path id="Vector_41" d="M169.518 69.9439C169.518 70.8473 169.556 70.9098 170.158 71.0234C170.446 71.0739 170.786 71.337 170.786 71.7515C170.786 72.2538 170.51 72.467 169.87 72.467C169.468 72.467 169.205 72.3415 168.502 72.3415C167.799 72.3415 167.498 72.467 167.134 72.467C166.494 72.467 166.218 72.2538 166.218 71.7515C166.218 71.3377 166.557 71.0866 166.845 71.0234C167.473 70.8979 167.485 70.8979 167.485 69.9439V68.0114C167.485 67.0701 167.46 67.0701 166.845 67.0701C166.544 67.0701 166.218 66.9066 166.218 66.5054C166.218 66.0032 166.783 65.6896 167.899 65.6896C169.242 65.6896 169.518 66.1035 169.518 67.5723V69.9439ZM169.531 63.983C169.531 64.6227 168.979 65.1376 168.289 65.1376C167.473 65.1376 167.046 64.7988 167.046 63.983C167.046 63.3433 167.598 62.8285 168.289 62.8285C169.13 62.8285 169.531 63.2051 169.531 63.983Z" fill="var(--fill-0, #D42D78)"/>
<path id="Vector_42" d="M174.726 65.8155C176.055 65.8155 176.269 65.6899 176.733 65.6899C177.16 65.6899 177.511 65.9284 177.511 66.4054C177.511 67.5095 176.168 67.8111 174.01 70.8224H175.529C175.905 70.8224 175.993 70.6716 175.993 70.4962C175.993 70.358 175.943 70.1953 175.943 70.0445C175.943 69.7057 176.106 69.2035 176.708 69.2035C177.31 69.2035 177.573 69.7934 177.573 70.2704C177.573 71.2867 177.51 72.4666 176.544 72.4666C175.854 72.4666 175.766 72.341 174.21 72.341C172.653 72.341 172.378 72.4666 171.888 72.4666C171.399 72.4666 171.16 72.1783 171.16 71.7385C171.16 70.5965 173.971 68.2502 174.774 67.1959H173.193C172.954 67.1959 172.892 67.3089 172.892 67.4597C172.892 67.635 172.954 67.849 172.954 67.9738C172.954 68.225 172.779 68.7138 172.176 68.7138C171.574 68.7138 171.335 68.2874 171.335 67.7725C171.335 66.4797 171.674 65.6892 172.54 65.6892C173.205 65.6892 173.243 65.8148 174.723 65.8148L174.726 65.8155Z" fill="var(--fill-0, #D42D78)"/>
<path id="Vector_43" d="M178.213 70.6968C178.213 69.1283 179.506 68.5005 182.103 68.4381C182.091 67.1959 181.99 66.895 181.3 66.895C180.648 66.895 180.484 67.1082 180.484 67.6855C180.484 68.0748 180.196 68.2628 179.782 68.2628C179.104 68.2628 178.678 67.8237 178.678 67.1587C178.678 66.7575 179.004 65.6275 181.451 65.6275C183.358 65.6275 184.124 66.3675 184.124 67.9619V70.1952C184.124 70.8981 184.149 70.9858 184.801 70.9858C185.002 70.9858 185.215 71.0237 185.215 71.3372C185.215 71.6507 185.039 72.5289 183.935 72.5289C183.421 72.5289 182.843 72.3283 182.542 71.7131C182.065 72.1901 181.35 72.5289 180.296 72.5289C178.489 72.5289 178.212 71.3491 178.212 70.6968H178.213ZM180.246 70.3706C180.246 70.8602 180.434 71.0229 181.187 71.0229C181.941 71.0229 182.129 70.3201 182.129 69.5295C180.497 69.5295 180.247 69.8936 180.247 70.3706H180.246Z" fill="var(--fill-0, #D42D78)"/>
<path id="Vector_44" d="M189.77 71.9523C189.406 72.442 189.03 72.5296 188.327 72.5296C187.549 72.5296 187.173 72.1284 187.034 71.8394C186.52 70.7472 186.231 67.7107 185.641 67.2969C185.39 67.1334 184.738 67.0963 184.738 66.4061C184.738 65.9038 185.014 65.6906 185.654 65.6906C186.031 65.6906 186.144 65.8161 186.834 65.8161C187.524 65.8161 187.8 65.6906 188.202 65.6906C188.666 65.6906 188.942 65.9038 188.942 66.4061C188.942 66.7449 188.666 66.9083 188.39 67.0331C188.264 67.0955 188.226 67.3095 188.226 67.6104C188.226 68.1498 188.565 70.5095 188.791 70.5095C189.029 70.5095 189.33 68.2003 189.443 66.8957C189.494 66.2307 189.983 65.8161 190.773 65.8161C191.564 65.8161 192.053 66.23 192.09 66.8957C192.178 68.2761 192.593 70.5095 192.819 70.5095C193.057 70.5095 193.308 68.6773 193.308 67.5985C193.308 67.2976 193.258 67.0963 193.133 67.0339C192.856 66.9083 192.593 66.7456 192.593 66.4068C192.593 65.9045 192.87 65.6913 193.333 65.6913C193.735 65.6913 193.885 65.8169 194.588 65.8169C195.291 65.8169 195.404 65.6913 195.768 65.6913C196.408 65.6913 196.684 65.9045 196.684 66.4068C196.684 67.097 196.032 67.1349 195.781 67.2976C195.191 67.7115 194.639 70.4723 194.362 71.4516C194.149 72.2421 193.697 72.5311 192.719 72.5311C192.129 72.5311 191.803 72.3677 191.502 71.9412C190.686 70.8119 190.912 68.8541 190.686 68.8541C190.46 68.8541 190.623 70.7992 189.77 71.9538V71.9523Z" fill="var(--fill-0, #D42D78)"/>
<path id="Vector_45" d="M196.648 70.6968C196.648 69.1283 197.941 68.5005 200.538 68.4381C200.526 67.1959 200.425 66.895 199.735 66.895C199.083 66.895 198.919 67.1082 198.919 67.6855C198.919 68.0748 198.631 68.2628 198.217 68.2628C197.539 68.2628 197.113 67.8237 197.113 67.1587C197.113 66.7575 197.439 65.6275 199.886 65.6275C201.793 65.6275 202.559 66.3675 202.559 67.9619V70.1952C202.559 70.8981 202.584 70.9858 203.236 70.9858C203.437 70.9858 203.65 71.0237 203.65 71.3372C203.65 71.6507 203.474 72.5289 202.37 72.5289C201.856 72.5289 201.278 72.3283 200.977 71.7131C200.5 72.1901 199.785 72.5289 198.731 72.5289C196.924 72.5289 196.647 71.3491 196.647 70.6968H196.648ZM198.682 70.3706C198.682 70.8602 198.87 71.0229 199.623 71.0229C200.376 71.0229 200.564 70.3201 200.564 69.5295C198.933 69.5295 198.682 69.8936 198.682 70.3706H198.682Z" fill="var(--fill-0, #D42D78)"/>
<path id="Vector_46" d="M63.7261 79.0862C63.3227 79.2266 62.9787 79.4414 62.6904 79.7296C62.4021 80.0179 62.1429 80.3463 61.9125 80.7185C61.6822 81.0893 61.4675 81.4905 61.2691 81.9221C61.0707 82.3538 60.8597 82.7862 60.6354 83.2186C60.4125 83.651 60.1628 84.0686 59.8865 84.4705C59.6116 84.874 59.2854 85.2365 58.908 85.5553L58.9273 85.5746C59.3812 85.2804 59.7951 84.9364 60.1695 84.5426C60.544 84.1503 60.9043 83.7394 61.2498 83.3145C61.5953 82.8887 61.9326 82.4608 62.2625 82.0328C62.5916 81.6041 62.9393 81.2074 63.3034 80.8433C63.5857 80.5551 63.8792 80.3017 64.1868 80.0848C64.4944 79.8678 64.7997 79.6851 65.1036 79.5372C65.4075 79.3894 65.7039 79.2779 65.9914 79.2014C66.2797 79.1249 66.5472 79.0862 66.7968 79.0862C67.0465 79.0862 67.2107 79.0996 67.3102 79.1249C67.4098 79.1501 67.4588 79.1984 67.4588 79.269C67.4588 79.3396 67.4165 79.3797 67.334 79.3894C67.2515 79.399 67.1839 79.4035 67.1326 79.4035C67.0502 79.4035 66.9722 79.3953 66.8971 79.3797C66.8236 79.3641 66.7522 79.35 66.6809 79.3366C66.6111 79.3232 66.5516 79.3113 66.5034 79.298C66.4551 79.2846 66.4157 79.2787 66.383 79.2787C66.0122 79.4458 65.6928 79.6962 65.4238 80.032C65.1549 80.3678 64.9052 80.7482 64.6749 81.1732C64.4446 81.5989 64.218 82.0492 63.9929 82.5225C63.77 82.9965 63.5174 83.4489 63.2395 83.8814C62.9624 84.3138 62.6406 84.7061 62.2758 85.0612C61.911 85.4163 61.469 85.6897 60.9511 85.8822V85.9015H61.0373C61.7097 85.9015 62.2721 85.825 62.7276 85.6712C63.1815 85.5174 63.5664 85.3235 63.8836 85.0857C64.2001 84.8494 64.4646 84.5887 64.6756 84.3041C64.8866 84.0188 65.0791 83.7424 65.2514 83.4735L65.328 83.5218C65.1482 83.8293 64.9439 84.1317 64.7135 84.4282C64.4832 84.7261 64.2046 84.9921 63.8784 85.2254C63.5523 85.4594 63.1607 85.6489 62.7031 85.7967C62.2446 85.9446 61.6993 86.0174 61.0663 86.0174C60.9645 86.0174 60.8597 86.0137 60.7542 86.0077C60.6487 86.0018 60.573 85.9981 60.5284 85.9981C60.4897 85.9981 60.4206 86.0018 60.3174 86.0077C60.2156 86.0137 60.1101 86.0174 60.0009 86.0174C59.8278 86.0174 59.7416 85.9788 59.7416 85.9022C59.7416 85.8123 59.8084 85.7678 59.9429 85.7678C60.0462 85.7678 60.1569 85.7811 60.2743 85.8064C60.3932 85.8317 60.5254 85.8577 60.6725 85.8829C60.8323 85.8502 61.0024 85.7499 61.1814 85.5805C61.3605 85.4111 61.5418 85.2001 61.7238 84.9468C61.9066 84.6949 62.0812 84.4126 62.2521 84.1028C62.4215 83.7922 62.576 83.4831 62.7179 83.1763C62.8777 82.8248 63.0612 82.466 63.2685 82.1012C63.4772 81.7364 63.7172 81.3835 63.9884 81.0402C64.2611 80.6985 64.5657 80.3805 64.9052 80.0863C65.244 79.792 65.6214 79.5387 66.0382 79.3277L66.0189 79.3084C65.539 79.4295 65.1028 79.6122 64.7128 79.8559C64.3227 80.0996 63.9579 80.379 63.6184 80.6962C63.2796 81.012 62.9616 81.353 62.6644 81.7178C62.3665 82.0826 62.0715 82.4526 61.781 82.8271C61.489 83.2015 61.1918 83.5686 60.888 83.9311C60.5841 84.2922 60.2594 84.6236 59.9132 84.9237C59.6576 85.1481 59.3864 85.3643 59.0982 85.5716C58.8099 85.7789 58.509 85.9542 58.1954 86.0947L58.1093 86.0181C58.4035 85.7299 58.6516 85.4082 58.8537 85.053C59.0551 84.6979 59.2423 84.3256 59.4154 83.9356C59.5885 83.544 59.7631 83.1473 59.9422 82.7401C60.122 82.333 60.3382 81.9325 60.59 81.5351C60.8434 81.139 61.1517 80.7586 61.5165 80.3939C61.8813 80.0291 62.3331 79.6932 62.8702 79.3856L62.8509 79.3663C62.3828 79.5394 61.9579 79.7683 61.5737 80.0528C61.1896 80.3374 60.8345 80.6442 60.5076 80.9748C60.1814 81.304 59.879 81.6435 59.6011 81.9912C59.3225 82.3404 59.061 82.6681 58.8188 82.9757C58.5558 83.3018 58.2809 83.6481 57.9934 84.0129C57.7051 84.3762 57.393 84.7164 57.0572 85.0292C56.7214 85.3435 56.3611 85.6021 55.9784 85.8071C55.5943 86.0122 55.1745 86.1147 54.7206 86.1147C54.5534 86.1147 54.3885 86.0909 54.2213 86.0427C54.0556 85.9944 53.9033 85.9238 53.7651 85.8317C53.6284 85.7395 53.5155 85.6244 53.4293 85.4862C53.3431 85.3495 53.3 85.1912 53.3 85.0107C53.3 84.8123 53.3505 84.6436 53.4486 84.5017C53.5482 84.3613 53.7027 84.2915 53.9144 84.2915C54.037 84.2915 54.1388 84.3301 54.222 84.4052C54.3045 84.4817 54.3469 84.5812 54.3469 84.7031C54.3469 84.998 54.2027 85.1541 53.9144 85.1734C53.9219 85.4557 54.014 85.6533 54.1931 85.7685C54.3721 85.8837 54.5928 85.9416 54.8558 85.9416C55.2013 85.9416 55.5772 85.8443 55.9844 85.6489C56.39 85.4542 56.8113 85.1295 57.2459 84.6741C57.5721 84.3353 57.8841 83.9764 58.1821 83.5998C58.48 83.2216 58.7787 82.8427 59.0796 82.4623C59.3797 82.0819 59.6881 81.7111 60.0053 81.3486C60.3218 80.9875 60.6643 80.6539 61.0329 80.3463C61.4014 80.0387 61.8011 79.769 62.2328 79.535C62.6652 79.3009 63.1429 79.1271 63.6667 79.0119L63.7246 79.0884L63.7261 79.0862Z" fill="var(--fill-0, #D42D78)"/>
<path id="Vector_47" d="M67.998 82.6964L68.9965 82.6384C68.9386 82.7536 68.8546 82.8925 68.7469 83.056C68.6377 83.2194 68.5188 83.3955 68.3917 83.5842C68.2632 83.7729 68.1339 83.9683 68.0032 84.1697C67.8724 84.3703 67.752 84.5657 67.6428 84.7544C67.5336 84.9438 67.4459 85.1192 67.3791 85.2826C67.3122 85.4461 67.278 85.585 67.278 85.7002C67.278 85.8599 67.3583 85.9402 67.518 85.9402C67.6777 85.9402 67.8791 85.8503 68.1421 85.6712C68.4036 85.4922 68.68 85.2559 68.9675 84.9609C69.0886 84.8398 69.2127 84.7091 69.336 84.5672C69.4609 84.4267 69.5812 84.2878 69.6964 84.1503C69.8115 84.0122 69.917 83.8836 70.0129 83.7662C70.1087 83.6474 70.186 83.55 70.2432 83.4735L70.3101 83.5121C70.1429 83.735 69.9527 83.9839 69.7343 84.2566C69.5173 84.5278 69.2543 84.8168 68.9482 85.1244C68.6406 85.432 68.3382 85.6824 68.041 85.8778C67.7431 86.0732 67.4467 86.1705 67.1532 86.1705C66.9481 86.1705 66.7899 86.1177 66.6777 86.0122C66.5655 85.9067 66.5098 85.7767 66.5098 85.6237C66.5098 85.5731 66.5135 85.5256 66.5194 85.4795C66.5269 85.4349 66.5365 85.4 66.5484 85.374H66.5291C66.3307 85.5984 66.1063 85.7871 65.8582 85.9402C65.6086 86.094 65.3396 86.1705 65.0513 86.1705C64.8975 86.1705 64.766 86.1415 64.6576 86.0843C64.5483 86.0264 64.4607 85.9483 64.3938 85.8488C64.3269 85.7492 64.2772 85.6378 64.2452 85.513C64.2133 85.3881 64.1969 85.2589 64.1969 85.1244C64.1969 84.8108 64.2831 84.4981 64.4562 84.1845C64.6293 83.8702 64.8463 83.5872 65.1093 83.3346C65.3708 83.0812 65.6635 82.8776 65.9867 82.7201C66.3107 82.5626 66.619 82.4846 66.9132 82.4846C67.1376 82.4846 67.3129 82.5329 67.4415 82.6287C67.57 82.7246 67.6755 82.8747 67.758 83.0797L67.998 82.6956V82.6964ZM65.1182 85.1534C65.1182 85.3391 65.1479 85.5011 65.2096 85.6385C65.2698 85.7767 65.399 85.8451 65.5982 85.8451C65.7326 85.8391 65.8731 85.7827 66.0194 85.6772C66.1673 85.5717 66.3099 85.4394 66.4466 85.2789C66.5848 85.1192 66.7156 84.9416 66.8404 84.7462C66.9652 84.5516 67.0744 84.3547 67.1666 84.157C67.2587 83.9579 67.3337 83.7707 67.3872 83.5954C67.4415 83.4193 67.469 83.2699 67.469 83.1488C67.469 82.9757 67.4363 82.8412 67.3731 82.7454C67.31 82.6495 67.1844 82.6013 66.9987 82.6013C66.8508 82.6013 66.7037 82.6458 66.5521 82.7357C66.402 82.8256 66.2579 82.943 66.1197 83.0909C65.983 83.2387 65.8523 83.4029 65.7274 83.5857C65.6026 83.7685 65.4949 83.9557 65.4057 84.1474C65.3158 84.3391 65.2452 84.5233 65.1947 84.6979C65.1435 84.874 65.1182 85.0271 65.1182 85.1541V85.1534Z" fill="var(--fill-0, #D42D78)"/>
<path id="Vector_48" d="M67.452 86.7753C67.4193 86.7679 67.3621 86.7657 67.2789 86.7657C67.0025 86.7657 66.7907 86.8638 66.6406 87.0636C66.4906 87.262 66.4148 87.5049 66.4148 87.7925C66.4148 88.132 66.5195 88.3973 66.7268 88.5897C66.9341 88.7814 67.1927 88.878 67.4995 88.878C67.8249 88.878 68.1318 88.8096 68.4201 88.6714C68.7083 88.5332 68.9773 88.3519 69.2269 88.1238C69.4766 87.8972 69.7121 87.6379 69.9327 87.3474C70.1534 87.0555 70.3577 86.7568 70.5472 86.4499C70.7359 86.1423 70.9135 85.8414 71.0791 85.5472C71.2463 85.253 71.3994 84.9878 71.5398 84.75L71.5205 84.7307C71.4246 84.8459 71.3043 84.9826 71.1601 85.1386C71.016 85.2961 70.8555 85.4462 70.6765 85.5896C70.4967 85.7337 70.3079 85.857 70.1103 85.9596C69.9112 86.0614 69.7091 86.1134 69.5055 86.1134C69.302 86.1134 69.1422 86.0524 69.0494 85.9306C68.9565 85.8087 68.9104 85.6654 68.9104 85.4982C68.9104 85.331 68.955 85.1564 69.0449 84.9506C69.1348 84.7463 69.2477 84.5212 69.3859 84.2753C69.5241 84.0278 69.6786 83.7678 69.8518 83.4929C70.0249 83.218 70.1972 82.9327 70.3704 82.6385L71.3867 82.5999C70.8503 83.4387 70.4298 84.0999 70.1304 84.5866C69.8295 85.0739 69.6794 85.4194 69.6794 85.6237C69.6794 85.7003 69.7032 85.7627 69.7515 85.811C69.7998 85.8593 69.8584 85.883 69.929 85.883C70.0442 85.883 70.1906 85.8244 70.3704 85.7055C70.5494 85.5881 70.7404 85.4291 70.9402 85.23C71.1416 85.0316 71.3459 84.8028 71.5502 84.5435C71.7553 84.2857 71.9403 84.0174 72.1074 83.7425C72.2478 83.5122 72.3727 83.3012 72.4819 83.1088C72.5911 82.9164 72.6706 82.7596 72.7219 82.6385L73.6632 82.5999C73.3177 83.195 72.9826 83.7879 72.6594 84.38C72.3363 84.9729 71.9982 85.5599 71.6468 86.1416C71.9544 86.0517 72.2575 85.912 72.5591 85.7241C72.8608 85.5361 73.1498 85.3162 73.4284 85.0665C73.707 84.8169 73.9663 84.5516 74.2063 84.2708C74.4448 83.9885 74.661 83.7136 74.8534 83.4454L74.93 83.5122C74.713 83.8258 74.473 84.1319 74.2108 84.4283C73.9478 84.7262 73.6706 84.9982 73.3801 85.2448C73.0881 85.4922 72.7895 85.7047 72.4826 85.883C72.1758 86.0614 71.8682 86.1906 71.5606 86.2672C71.3303 86.6572 71.071 87.0183 70.7842 87.3519C70.4959 87.684 70.1794 87.9723 69.8339 88.2152C69.4884 88.4589 69.114 88.6484 68.7106 88.7866C68.3071 88.9248 67.8755 88.9931 67.4156 88.9931C67.1852 88.9931 66.9609 88.9731 66.7432 88.9307C66.5255 88.8884 66.3338 88.8193 66.1674 88.7197C66.0002 88.6201 65.8665 88.4894 65.7639 88.3259C65.6621 88.1625 65.6101 87.9634 65.6101 87.7256C65.6101 87.5347 65.6495 87.3712 65.7305 87.2375C65.8115 87.1037 65.9162 86.9923 66.047 86.9061C66.1778 86.8199 66.3293 86.7545 66.498 86.7144C66.6674 86.6721 66.8412 86.652 67.021 86.652C67.0976 86.652 67.1756 86.6542 67.2566 86.6617C67.3361 86.6676 67.4014 86.6773 67.4534 86.6907V86.7768L67.452 86.7753Z" fill="var(--fill-0, #D42D78)"/>
<path id="Vector_49" d="M77.2498 80.7188L75.0328 84.097L75.0521 84.1164C75.1866 83.9559 75.3285 83.7805 75.4793 83.5881C75.6294 83.3964 75.7929 83.2181 75.9675 83.0554C76.1436 82.8919 76.3323 82.7567 76.5336 82.6475C76.735 82.5383 76.9549 82.484 77.1911 82.484C77.4274 82.484 77.6065 82.5598 77.7484 82.7099C77.8888 82.86 77.9594 83.0569 77.9594 83.3006C77.9594 83.6141 77.8925 83.9113 77.758 84.1936C77.6236 84.4745 77.4601 84.7182 77.2684 84.9225L77.2877 84.9418C77.5047 84.8972 77.7172 84.8252 77.9259 84.7256C78.1332 84.6275 78.3338 84.5086 78.5263 84.3705C78.7179 84.2337 78.897 84.0837 79.0627 83.9202C79.2299 83.7568 79.3792 83.5911 79.5137 83.4254L79.5805 83.4923C79.4594 83.6461 79.3153 83.8058 79.1481 83.9722C78.9824 84.1379 78.7989 84.2962 78.5976 84.4462C78.3962 84.5978 78.1748 84.7286 77.9349 84.84C77.6949 84.9529 77.44 85.031 77.1718 85.0755C77.0433 85.1907 76.8992 85.3133 76.7394 85.4403C76.5797 85.5689 76.4095 85.6863 76.2305 85.7955C76.0514 85.9047 75.8694 85.9938 75.6829 86.0644C75.4979 86.135 75.3159 86.1699 75.1368 86.1699C75.0024 86.1699 74.885 86.1424 74.7861 86.0882C74.6866 86.034 74.6376 85.9433 74.6376 85.8148C74.6376 85.6863 74.7022 85.5696 74.8344 85.4834C74.9652 85.3972 75.1235 85.3274 75.3099 85.2724C75.4949 85.2182 75.6881 85.1751 75.8895 85.1431C76.0908 85.1119 76.2595 85.0852 76.3932 85.0666C76.4511 84.9901 76.5165 84.8928 76.5901 84.7739C76.6636 84.6565 76.7342 84.5228 76.8011 84.3757C76.868 84.2293 76.9244 84.071 76.969 83.9016C77.0136 83.7315 77.0359 83.5569 77.0359 83.3786C77.0359 83.308 77.0314 83.2397 77.0217 83.172C77.0121 83.1044 76.9928 83.0435 76.9638 82.9893C76.9348 82.935 76.8954 82.8919 76.8434 82.86C76.7914 82.828 76.7246 82.8117 76.6421 82.8117C76.4504 82.8117 76.2268 82.9365 75.9697 83.1862C75.7141 83.4358 75.4429 83.7575 75.1547 84.1513C74.8664 84.5436 74.5737 84.9834 74.2757 85.4656C73.9778 85.9493 73.691 86.4225 73.4161 86.8869C73.1412 87.3505 72.8901 87.7785 72.6627 88.1722C72.4361 88.566 72.2489 88.8721 72.1025 89.0891L71.0847 89.1277C71.9413 87.745 72.7972 86.3542 73.6516 84.9522C74.506 83.5517 75.3582 82.1571 76.2097 80.7685L77.2469 80.7202L77.2498 80.7188ZM75.0046 85.7866C75.0046 85.927 75.0937 85.9976 75.2735 85.9976C75.3627 85.9976 75.457 85.9686 75.5559 85.9114C75.6554 85.8534 75.7527 85.7851 75.8486 85.7048C75.9444 85.6246 76.0343 85.5392 76.1175 85.4455C76.2015 85.3534 76.2713 85.268 76.3285 85.1914C76.2461 85.2048 76.1294 85.2241 75.9779 85.2494C75.8278 85.2761 75.6799 85.3096 75.5365 85.3504C75.3939 85.3928 75.2691 85.4485 75.1636 85.5183C75.0581 85.5889 75.0053 85.6781 75.0053 85.7873L75.0046 85.7866Z" fill="var(--fill-0, #D42D78)"/>
<path id="Vector_50" d="M82.2125 82.6964L83.2111 82.6384C83.1531 82.7536 83.0692 82.8925 82.9614 83.056C82.8522 83.2194 82.7333 83.3955 82.6063 83.5842C82.4777 83.7729 82.3485 83.9683 82.2177 84.1697C82.0869 84.3703 81.9666 84.5657 81.8574 84.7544C81.7482 84.9438 81.6605 85.1192 81.5936 85.2826C81.5267 85.4461 81.4926 85.585 81.4926 85.7002C81.4926 85.8599 81.5728 85.9402 81.7326 85.9402C81.8923 85.9402 82.0936 85.8503 82.3566 85.6712C82.6182 85.4922 82.8946 85.2559 83.1821 84.9609C83.3032 84.8398 83.4273 84.7091 83.5506 84.5672C83.6754 84.4267 83.7958 84.2878 83.9109 84.1503C84.0261 84.0122 84.1316 83.8836 84.2274 83.7662C84.3233 83.6474 84.4006 83.55 84.4578 83.4735L84.5246 83.5121C84.3575 83.735 84.1673 83.9839 83.9488 84.2566C83.7319 84.5278 83.4689 84.8168 83.1628 85.1244C82.8552 85.432 82.5528 85.6824 82.2556 85.8778C81.9577 86.0732 81.6612 86.1705 81.3678 86.1705C81.1627 86.1705 81.0044 86.1177 80.8922 86.0122C80.7808 85.9067 80.7243 85.7767 80.7243 85.6237C80.7243 85.5731 80.7281 85.5256 80.734 85.4795C80.7414 85.4349 80.7511 85.4 80.763 85.374H80.7437C80.5453 85.5984 80.3209 85.7871 80.0728 85.9402C79.8231 86.094 79.5542 86.1705 79.2659 86.1705C79.1121 86.1705 78.9806 86.1415 78.8721 86.0843C78.7629 86.0264 78.6752 85.9483 78.6084 85.8488C78.5415 85.7492 78.4917 85.6378 78.4598 85.513C78.4271 85.3881 78.4115 85.2589 78.4115 85.1244C78.4115 84.8108 78.4977 84.4981 78.6708 84.1845C78.8439 83.8702 79.0608 83.5872 79.3238 83.3346C79.5854 83.0812 79.8781 82.8776 80.2013 82.7201C80.5252 82.5626 80.8336 82.4846 81.1278 82.4846C81.3522 82.4846 81.5275 82.5329 81.656 82.6287C81.7846 82.7246 81.8901 82.8747 81.9725 83.0797L82.2125 82.6956V82.6964ZM79.3335 85.1534C79.3335 85.3391 79.3632 85.5011 79.4249 85.6385C79.4851 85.7767 79.6143 85.8451 79.8135 85.8451C79.9479 85.8391 80.0884 85.7827 80.2347 85.6772C80.3826 85.5717 80.5252 85.4394 80.6619 85.2789C80.8001 85.1192 80.9309 84.9416 81.0557 84.7462C81.1805 84.5516 81.2897 84.3547 81.3819 84.157C81.474 83.9579 81.549 83.7707 81.6025 83.5954C81.6568 83.4193 81.6843 83.2699 81.6843 83.1488C81.6843 82.9757 81.6516 82.8412 81.5884 82.7454C81.5253 82.6495 81.3997 82.6013 81.214 82.6013C81.0661 82.6013 80.919 82.6458 80.7674 82.7357C80.6173 82.8256 80.4732 82.943 80.335 83.0909C80.1983 83.2387 80.0675 83.4029 79.9427 83.5857C79.8179 83.7685 79.7102 83.9557 79.621 84.1474C79.5311 84.3391 79.4605 84.5233 79.41 84.6979C79.3588 84.874 79.3335 85.0271 79.3335 85.1541V85.1534Z" fill="var(--fill-0, #D42D78)"/>
<path id="Vector_51" d="M85.5979 82.5998C85.4827 82.7729 85.3326 82.9824 85.1469 83.2283C84.9619 83.4742 84.7806 83.7321 84.6053 84.001C84.4292 84.27 84.2754 84.533 84.1446 84.7923C84.0124 85.0516 83.9477 85.2841 83.9477 85.4884C83.9477 85.5977 83.9715 85.6898 84.0198 85.7671C84.0681 85.8443 84.1491 85.8822 84.265 85.8822C84.5012 85.8822 84.7509 85.7529 85.0139 85.4936C85.2754 85.2343 85.5696 84.8458 85.8958 84.3279C86.005 84.1481 86.112 83.9728 86.2175 83.7997C86.323 83.6266 86.4203 83.4676 86.5102 83.3197C86.6001 83.1719 86.6819 83.0403 86.7554 82.9215C86.829 82.8026 86.8884 82.709 86.933 82.6384L87.9605 82.5998C87.8513 82.7729 87.7034 82.9883 87.5192 83.2476C87.3334 83.5069 87.1492 83.7766 86.9672 84.059C86.7844 84.3398 86.6276 84.6147 86.4969 84.8837C86.3661 85.1526 86.3 85.3867 86.3 85.5843C86.3 85.7054 86.3289 85.8049 86.3862 85.8822C86.4434 85.9595 86.534 85.9974 86.6551 85.9974C86.8223 85.9974 86.9872 85.9528 87.1544 85.8629C87.3201 85.773 87.4806 85.6563 87.6343 85.5122C87.7881 85.3681 87.9323 85.2039 88.0668 85.0174C88.2012 84.8324 88.3186 84.6429 88.4219 84.4513C88.5237 84.2603 88.6069 84.0709 88.67 83.8859C88.7347 83.7001 88.7696 83.5329 88.7756 83.3866C88.7369 83.3286 88.7035 83.2655 88.6745 83.1949C88.6455 83.1243 88.6314 83.0448 88.6314 82.9549C88.6314 82.8264 88.6671 82.7164 88.7369 82.6235C88.8075 82.5314 88.9167 82.4846 89.0631 82.4846C89.1723 82.4846 89.26 82.5084 89.3268 82.5567C89.3937 82.605 89.4472 82.6659 89.4851 82.7394C89.5237 82.813 89.549 82.897 89.5616 82.9891C89.575 83.0812 89.5809 83.1726 89.5809 83.2625C89.5809 83.3331 89.5765 83.417 89.5668 83.5166C89.5572 83.6147 89.5468 83.7098 89.5334 83.7997C89.7444 83.9728 89.9688 84.059 90.2058 84.059C90.4227 84.059 90.6137 83.998 90.7771 83.8762C90.9406 83.7536 91.0817 83.6132 91.2043 83.4534L91.2712 83.5017C91.1427 83.6808 90.9881 83.8376 90.8053 83.972C90.6226 84.1065 90.4227 84.1734 90.205 84.1734C90.0646 84.1734 89.9361 84.1496 89.8209 84.1013C89.7057 84.053 89.604 83.9936 89.5133 83.9237C89.4175 84.2313 89.2719 84.5181 89.0765 84.7871C88.8818 85.056 88.6537 85.2886 88.3959 85.4832C88.1366 85.6786 87.8535 85.8324 87.5459 85.9439C87.2383 86.0553 86.9256 86.1118 86.6046 86.1118C86.2591 86.1118 86.0058 86.0256 85.846 85.8525C85.6863 85.6794 85.606 85.4587 85.606 85.1898C85.606 85.1318 85.6097 85.0783 85.6157 85.0263C85.6231 84.9758 85.6328 84.9342 85.6447 84.9015L85.6254 84.8822C85.5236 85.036 85.4091 85.1868 85.2843 85.3332C85.1595 85.481 85.0265 85.6118 84.8824 85.7269C84.7382 85.8421 84.5822 85.9342 84.4165 86.0055C84.2494 86.0761 84.0711 86.111 83.8786 86.111C83.6349 86.111 83.4574 86.033 83.3459 85.8755C83.2345 85.718 83.178 85.5286 83.178 85.3042C83.178 85.0999 83.2308 84.877 83.3363 84.637C83.4418 84.397 83.5681 84.1578 83.7152 83.9178C83.8615 83.6778 84.0153 83.446 84.1758 83.2216C84.3356 82.9973 84.47 82.8026 84.5793 82.6362L85.5956 82.5975L85.5979 82.5998Z" fill="var(--fill-0, #D42D78)"/>
<path id="Vector_52" d="M95.2068 83.5024C95.0084 83.7713 94.7967 84.0366 94.5693 84.2996C94.3412 84.5611 94.0715 84.836 93.758 85.1243C93.3167 85.5218 92.8925 85.7952 92.486 85.9453C92.0804 86.0953 91.6978 86.1711 91.3396 86.1711C90.9815 86.1711 90.6866 86.0619 90.4756 85.845C90.2646 85.628 90.1591 85.3457 90.1591 85.0002C90.1591 84.6926 90.2512 84.3895 90.4377 84.0893C90.6227 83.7884 90.8567 83.5194 91.1383 83.2824C91.4191 83.0462 91.729 82.8537 92.064 82.7066C92.3999 82.5588 92.7179 82.486 93.0195 82.486C93.2944 82.486 93.5091 82.5387 93.6629 82.6442C93.8167 82.7497 93.8932 82.8983 93.8932 83.0908C93.8932 83.2446 93.8405 83.385 93.735 83.5135C93.6295 83.6406 93.4935 83.7557 93.3271 83.859C93.1599 83.9608 92.9727 84.0507 92.7654 84.1279C92.5581 84.2045 92.3516 84.2721 92.1458 84.3293C91.9414 84.3858 91.7498 84.434 91.5707 84.4719C91.3909 84.5106 91.2445 84.5425 91.1294 84.5678C91.0967 84.6963 91.0811 84.8115 91.0811 84.9133C91.0811 85.1897 91.1576 85.4125 91.3114 85.5856C91.4652 85.7588 91.6784 85.845 91.9533 85.845C92.2282 85.845 92.5187 85.7647 92.8412 85.605C93.1644 85.4452 93.4891 85.2112 93.816 84.9044C94.0656 84.6681 94.3056 84.4192 94.5359 84.1614C94.7662 83.9021 94.9683 83.6599 95.1407 83.4362L95.2068 83.5031V83.5024ZM93.125 82.8493C93.125 82.7594 93.1012 82.6955 93.0529 82.6576C93.0046 82.619 92.9422 82.5997 92.8657 82.5997C92.706 82.5997 92.5336 82.6665 92.3471 82.801C92.1621 82.9355 91.9868 83.0997 91.8248 83.2958C91.6613 83.4912 91.5172 83.6955 91.3924 83.9103C91.2676 84.1242 91.1858 84.3115 91.1472 84.4705C91.4087 84.4199 91.6584 84.3345 91.8946 84.2171C92.1324 84.0982 92.3412 83.9637 92.5232 83.8137C92.706 83.6621 92.8508 83.5031 92.9601 83.3337C93.0693 83.1643 93.1235 83.0023 93.1235 82.8485L93.125 82.8493Z" fill="var(--fill-0, #D42D78)"/>
<path id="Vector_53" d="M99.1144 83.5024C98.9161 83.7713 98.7043 84.0366 98.477 84.2996C98.2489 84.5611 97.9792 84.836 97.6656 85.1243C97.2243 85.5218 96.8001 85.7952 96.3937 85.9453C95.988 86.0953 95.6054 86.1711 95.2473 86.1711C94.8892 86.1711 94.5942 86.0619 94.3832 85.845C94.1722 85.628 94.0667 85.3457 94.0667 85.0002C94.0667 84.6926 94.1588 84.3895 94.3453 84.0893C94.5303 83.7884 94.7643 83.5194 95.0459 83.2824C95.3268 83.0462 95.6366 82.8537 95.9717 82.7066C96.3075 82.5588 96.6255 82.486 96.9271 82.486C97.202 82.486 97.4167 82.5387 97.5705 82.6442C97.7243 82.7497 97.8009 82.8983 97.8009 83.0908C97.8009 83.2446 97.7481 83.385 97.6426 83.5135C97.5371 83.6406 97.4011 83.7557 97.2347 83.859C97.0675 83.9608 96.8803 84.0507 96.673 84.1279C96.4657 84.2045 96.2592 84.2721 96.0534 84.3293C95.8491 84.3858 95.6574 84.434 95.4783 84.4719C95.2985 84.5106 95.1522 84.5425 95.037 84.5678C95.0043 84.6963 94.9887 84.8115 94.9887 84.9133C94.9887 85.1897 95.0652 85.4125 95.219 85.5856C95.3728 85.7588 95.5861 85.845 95.861 85.845C96.1359 85.845 96.4264 85.7647 96.7488 85.605C97.072 85.4452 97.3967 85.2112 97.7236 84.9044C97.9732 84.6681 98.2132 84.4192 98.4435 84.1614C98.6738 83.9021 98.8759 83.6599 99.0483 83.4362L99.1144 83.5031V83.5024ZM97.0319 82.8493C97.0319 82.7594 97.0081 82.6955 96.9598 82.6576C96.9115 82.619 96.8491 82.5997 96.7726 82.5997C96.6128 82.5997 96.4405 82.6665 96.254 82.801C96.069 82.9355 95.8936 83.0997 95.7317 83.2958C95.5682 83.4912 95.4241 83.6955 95.2993 83.9103C95.1745 84.1242 95.0927 84.3115 95.0541 84.4705C95.3156 84.4199 95.5653 84.3345 95.8015 84.2171C96.0393 84.0982 96.248 83.9637 96.4301 83.8137C96.6128 83.6621 96.7577 83.5031 96.8669 83.3337C96.9762 83.1643 97.0304 83.0023 97.0304 82.8485L97.0319 82.8493Z" fill="var(--fill-0, #D42D78)"/>
<path id="Vector_54" d="M115.269 78.885C115.077 78.9177 114.888 78.9652 114.702 79.0291C114.517 79.093 114.338 79.1695 114.164 79.2594C114.498 79.3999 114.769 79.599 114.976 79.8546C115.183 80.1101 115.288 80.4274 115.288 80.8048C115.288 81.0797 115.22 81.3271 115.081 81.5478C114.943 81.7684 114.768 81.9557 114.553 82.1095C114.339 82.2633 114.101 82.3821 113.839 82.4646C113.576 82.5471 113.323 82.5894 113.081 82.5894C112.838 82.5894 112.635 82.5315 112.476 82.4163C112.316 82.3012 112.236 82.1607 112.236 81.9936C112.236 81.8665 112.283 81.7558 112.375 81.6622C112.467 81.5701 112.597 81.5233 112.763 81.5233C112.859 81.5233 112.939 81.5329 113.003 81.5522C113.067 81.5716 113.124 81.5976 113.176 81.6288C113.054 81.6934 112.96 81.7707 112.893 81.8591C112.826 81.949 112.792 82.0485 112.792 82.157C112.792 82.2655 112.823 82.3457 112.888 82.397C112.952 82.4483 113.025 82.4735 113.109 82.4735C113.282 82.4735 113.45 82.4052 113.612 82.267C113.776 82.1303 113.922 81.9594 114.054 81.758C114.185 81.5567 114.288 81.339 114.364 81.105C114.441 80.8724 114.48 80.6562 114.48 80.4578C114.48 80.2141 114.444 80.0017 114.369 79.8196C114.295 79.6369 114.166 79.492 113.981 79.3828C113.609 79.6383 113.277 79.9578 112.987 80.3382C112.695 80.7186 112.421 81.1265 112.161 81.5612C111.902 81.9965 111.643 82.4386 111.384 82.8859C111.124 83.3339 110.84 83.7522 110.53 84.1437C110.219 84.5338 109.872 84.8755 109.488 85.1698C109.104 85.4647 108.653 85.6728 108.135 85.7939V85.8132C108.23 85.8325 108.345 85.8526 108.476 85.8756C108.606 85.8986 108.739 85.9187 108.874 85.938C109.008 85.9573 109.141 85.9714 109.272 85.9811C109.403 85.9907 109.519 85.9952 109.623 85.9952C110.621 85.9952 111.534 85.7946 112.363 85.3949C113.191 84.9952 113.913 84.3666 114.527 83.5092L114.594 83.5479C114.332 83.9379 114.058 84.2945 113.769 84.617C113.481 84.9409 113.164 85.2173 112.819 85.4476C112.473 85.678 112.093 85.8555 111.676 85.9803C111.261 86.1052 110.787 86.1676 110.256 86.1676C110.089 86.1676 109.907 86.1594 109.709 86.1438C109.51 86.1282 109.309 86.1052 109.104 86.0769C108.899 86.048 108.7 86.016 108.504 85.9811C108.308 85.9462 108.132 85.9053 107.971 85.8607C107.869 85.8934 107.749 85.9246 107.611 85.9566C107.474 85.9893 107.334 86.0153 107.189 86.0383C107.045 86.0613 106.903 86.0777 106.762 86.091C106.62 86.1044 106.493 86.1104 106.378 86.1104C106.244 86.1104 106.105 86.1007 105.965 86.0814C105.825 86.0621 105.696 86.0346 105.581 85.9997C105.466 85.9647 105.374 85.9194 105.302 85.8652C105.233 85.8109 105.197 85.7515 105.197 85.6876C105.197 85.5338 105.357 85.4573 105.677 85.4573C105.888 85.4573 106.1 85.4751 106.315 85.51C106.529 85.5457 106.733 85.5821 106.925 85.6207C107.117 85.6594 107.288 85.6965 107.438 85.7315C107.589 85.7664 107.705 85.7842 107.788 85.7842C108.161 85.7329 108.484 85.5754 108.763 85.3087C109.042 85.0435 109.305 84.7158 109.555 84.3257C109.805 83.9342 110.054 83.5033 110.304 83.0293C110.554 82.5553 110.836 82.0857 111.152 81.6176C111.469 81.151 111.833 80.7112 112.242 80.2988C112.652 79.8858 113.138 79.5418 113.702 79.2669V79.2475C113.554 79.2089 113.382 79.1792 113.188 79.1562C112.993 79.1331 112.761 79.1227 112.492 79.1227C112.184 79.1227 111.854 79.1614 111.498 79.2379C111.143 79.3144 110.786 79.4266 110.429 79.5737C110.07 79.7216 109.725 79.9014 109.392 80.1161C109.06 80.33 108.763 80.5745 108.504 80.8509C108.245 81.1258 108.038 81.4296 107.884 81.7618C107.73 82.0953 107.654 82.4527 107.654 82.8368C107.654 82.9654 107.667 83.0924 107.692 83.2209C107.719 83.3495 107.762 83.4661 107.822 83.5716C107.883 83.6771 107.964 83.7611 108.067 83.8257C108.17 83.8896 108.294 83.9216 108.441 83.9216C108.685 83.9216 108.902 83.8547 109.094 83.7202C109.286 83.5857 109.45 83.4223 109.584 83.2306C109.719 83.0389 109.82 82.8368 109.892 82.6258C109.962 82.4148 109.997 82.2298 109.997 82.0686V81.8673C109.997 81.7848 109.99 81.7075 109.978 81.6369H110.093C110.099 81.7016 110.104 81.7618 110.107 81.8197C110.109 81.8777 110.112 81.952 110.112 82.0404C110.112 82.2573 110.066 82.4914 109.977 82.741C109.887 82.9906 109.756 83.2202 109.583 83.4275C109.41 83.6348 109.196 83.8079 108.94 83.9461C108.684 84.0828 108.386 84.1526 108.047 84.1526C107.868 84.1526 107.706 84.1155 107.562 84.0419C107.418 83.9676 107.295 83.8688 107.193 83.744C107.09 83.6192 107.013 83.4788 106.963 83.3212C106.912 83.1637 106.886 82.9995 106.886 82.8264C106.886 82.4869 106.974 82.1578 107.15 81.8375C107.325 81.5181 107.56 81.2157 107.854 80.9311C108.149 80.6458 108.488 80.3865 108.872 80.1532C109.256 79.9192 109.656 79.7178 110.072 79.5484C110.488 79.3791 110.907 79.2461 111.329 79.1502C111.751 79.0544 112.145 79.0061 112.51 79.0061C112.792 79.0061 113.038 79.0202 113.249 79.0492C113.46 79.0781 113.678 79.1175 113.902 79.1695C114.101 79.093 114.323 79.0172 114.573 78.9437C114.823 78.8701 115.049 78.8233 115.255 78.8047L115.265 78.8813L115.269 78.885Z" fill="var(--fill-0, #D42D78)"/>
<path id="Vector_55" d="M118.559 83.5024C118.361 83.7713 118.149 84.0366 117.922 84.2996C117.694 84.5611 117.424 84.836 117.11 85.1243C116.669 85.5218 116.245 85.7952 115.839 85.9453C115.433 86.0953 115.05 86.1711 114.692 86.1711C114.334 86.1711 114.039 86.0619 113.828 85.845C113.617 85.628 113.512 85.3457 113.512 85.0002C113.512 84.6926 113.604 84.3895 113.79 84.0893C113.975 83.7884 114.209 83.5194 114.491 83.2824C114.772 83.0462 115.081 82.8537 115.416 82.7066C115.752 82.5588 116.07 82.486 116.372 82.486C116.647 82.486 116.862 82.5387 117.015 82.6442C117.169 82.7497 117.246 82.8983 117.246 83.0908C117.246 83.2446 117.193 83.385 117.087 83.5135C116.982 83.6406 116.846 83.7557 116.68 83.859C116.512 83.9608 116.325 84.0507 116.118 84.1279C115.911 84.2045 115.704 84.2721 115.498 84.3293C115.294 84.3858 115.102 84.434 114.923 84.4719C114.743 84.5106 114.597 84.5425 114.482 84.5678C114.449 84.6963 114.434 84.8115 114.434 84.9133C114.434 85.1897 114.51 85.4125 114.664 85.5856C114.818 85.7588 115.031 85.845 115.306 85.845C115.581 85.845 115.871 85.7647 116.194 85.605C116.517 85.4452 116.842 85.2112 117.168 84.9044C117.418 84.6681 117.658 84.4192 117.888 84.1614C118.119 83.9021 118.321 83.6599 118.493 83.4362L118.559 83.5031V83.5024ZM116.477 82.8493C116.477 82.7594 116.453 82.6955 116.405 82.6576C116.356 82.619 116.294 82.5997 116.217 82.5997C116.058 82.5997 115.885 82.6665 115.699 82.801C115.514 82.9355 115.338 83.0997 115.177 83.2958C115.013 83.4912 114.869 83.6955 114.744 83.9103C114.619 84.1242 114.538 84.3115 114.499 84.4705C114.76 84.4199 115.01 84.3345 115.246 84.2171C115.484 84.0982 115.693 83.9637 115.875 83.8137C116.058 83.6621 116.203 83.5031 116.312 83.3337C116.421 83.1643 116.475 83.0023 116.475 82.8485L116.477 82.8493Z" fill="var(--fill-0, #D42D78)"/>
<path id="Vector_56" d="M117.899 82.811L117.966 82.6379H118.705L119.425 81.4283L120.462 81.3897L119.665 82.6379H120.884L120.798 82.811H119.559C119.271 83.285 119.029 83.6825 118.83 84.0064C118.631 84.3296 118.473 84.5978 118.355 84.8118C118.236 85.0265 118.15 85.1982 118.095 85.3252C118.041 85.4538 118.014 85.5652 118.014 85.661C118.014 85.7435 118.035 85.8111 118.081 85.8624C118.125 85.9136 118.188 85.9389 118.272 85.9389C118.432 85.9389 118.643 85.8572 118.906 85.6937C119.168 85.5303 119.45 85.3052 119.75 85.0169C119.955 84.8126 120.179 84.5726 120.422 84.2977C120.666 84.0213 120.893 83.7434 121.105 83.4626L121.162 83.5109C121.015 83.7026 120.83 83.9359 120.605 84.2115C120.381 84.4864 120.135 84.7576 119.866 85.0265C119.72 85.1744 119.567 85.3133 119.41 85.4441C119.254 85.5763 119.096 85.69 118.936 85.7896C118.775 85.8891 118.619 85.9671 118.465 86.0251C118.312 86.083 118.161 86.1113 118.015 86.1113C117.809 86.1113 117.63 86.0645 117.477 85.9723C117.323 85.8802 117.246 85.7182 117.246 85.4872C117.246 85.3215 117.281 85.1499 117.352 84.9738C117.422 84.7984 117.52 84.6038 117.645 84.3928C117.769 84.1825 117.914 83.9485 118.081 83.6929C118.247 83.4373 118.427 83.1424 118.619 82.8095H117.899V82.811Z" fill="var(--fill-0, #D42D78)"/>
<path id="Vector_57" d="M125.135 83.5404C124.898 83.8286 124.643 84.1273 124.368 84.4371C124.092 84.7477 123.797 85.0315 123.48 85.2871C123.164 85.5442 122.823 85.7537 122.462 85.9208C122.101 86.088 121.719 86.1705 121.316 86.1705C120.912 86.1705 120.637 86.0657 120.432 85.8584C120.227 85.6511 120.125 85.345 120.125 84.9416C120.125 84.634 120.215 84.3346 120.394 84.0404C120.573 83.7454 120.803 83.4832 121.085 83.2528C121.366 83.0225 121.676 82.836 122.015 82.6956C122.355 82.5552 122.684 82.4846 123.004 82.4846C123.298 82.4846 123.532 82.5433 123.704 82.6622C123.878 82.7811 123.964 82.9259 123.964 83.099C123.964 83.2201 123.94 83.3309 123.892 83.4304C123.843 83.5285 123.781 83.6132 123.704 83.6801C123.628 83.7469 123.541 83.7974 123.445 83.8338C123.349 83.8688 123.254 83.8866 123.157 83.8866C123.074 83.8866 122.999 83.8792 122.936 83.8673C122.981 83.7194 123.028 83.5693 123.08 83.4163C123.132 83.2625 123.157 83.1087 123.157 82.9557C123.157 82.8464 123.132 82.7603 123.08 82.6964C123.029 82.6325 122.959 82.6005 122.869 82.6005C122.702 82.6005 122.514 82.6666 122.303 82.7974C122.092 82.9282 121.894 83.105 121.709 83.3257C121.523 83.5463 121.366 83.7982 121.239 84.0842C121.11 84.3688 121.047 84.6637 121.047 84.9713C121.047 85.215 121.12 85.4216 121.268 85.591C121.414 85.7604 121.619 85.8451 121.88 85.8451C122.195 85.8451 122.507 85.7589 122.817 85.5858C123.127 85.4127 123.421 85.2039 123.7 84.9572C123.979 84.7113 124.233 84.4557 124.463 84.1905C124.693 83.9237 124.888 83.6957 125.049 83.504L125.134 83.5426L125.135 83.5404Z" fill="var(--fill-0, #D42D78)"/>
<path id="Vector_58" d="M123.207 86.0165L127.228 79.384L128.275 79.3357L125.088 84.3649L125.108 84.3842C125.248 84.2185 125.406 84.0254 125.583 83.8047C125.759 83.584 125.95 83.376 126.158 83.1806C126.367 82.9852 126.586 82.8203 126.816 82.6858C127.046 82.5513 127.286 82.4844 127.536 82.4844C127.741 82.4844 127.901 82.5372 128.016 82.6427C128.131 82.7482 128.189 82.9064 128.189 83.1182C128.189 83.2913 128.118 83.4941 127.978 83.7282C127.836 83.9607 127.684 84.2 127.517 84.4422C127.35 84.6859 127.197 84.9199 127.057 85.1428C126.916 85.3672 126.846 85.5559 126.846 85.7089C126.846 85.862 126.912 85.9393 127.047 85.9393C127.143 85.9393 127.264 85.8924 127.412 85.8003C127.56 85.7082 127.718 85.5878 127.887 85.44C128.057 85.2936 128.229 85.1264 128.406 84.9407C128.581 84.7557 128.751 84.5707 128.915 84.3887C129.077 84.2074 129.223 84.0358 129.35 83.876C129.479 83.7155 129.578 83.5878 129.648 83.4919L129.706 83.5499C129.54 83.7668 129.34 84.0164 129.106 84.2988C128.873 84.5796 128.628 84.8523 128.372 85.1138C128.027 85.4727 127.733 85.7283 127.489 85.8821C127.245 86.0358 126.996 86.1124 126.74 86.1124C126.51 86.1124 126.342 86.0455 126.236 85.911C126.131 85.7765 126.078 85.6227 126.078 85.4504C126.078 85.2275 126.149 85.0016 126.289 84.7735C126.431 84.5469 126.583 84.3248 126.75 84.1071C126.917 83.8887 127.07 83.6843 127.21 83.4927C127.351 83.301 127.421 83.1338 127.421 82.9934C127.421 82.9035 127.396 82.8351 127.345 82.7868C127.294 82.7385 127.236 82.7148 127.172 82.7148C127.031 82.7148 126.873 82.7735 126.696 82.8923C126.519 83.0112 126.335 83.165 126.139 83.353C125.944 83.5417 125.749 83.7564 125.554 83.9964C125.359 84.2364 125.172 84.4756 124.997 84.7156C124.821 84.9556 124.663 85.1881 124.527 85.4117C124.389 85.6361 124.279 85.8286 124.195 85.9875L123.207 86.0165Z" fill="var(--fill-0, #D42D78)"/>
<path id="Vector_59" d="M132.055 80.7188L129.838 84.097L129.858 84.1164C129.992 83.9559 130.134 83.7805 130.285 83.5881C130.435 83.3964 130.598 83.2181 130.773 83.0554C130.949 82.8919 131.138 82.7567 131.339 82.6475C131.541 82.5383 131.76 82.484 131.997 82.484C132.233 82.484 132.412 82.5598 132.554 82.7099C132.694 82.86 132.765 83.0569 132.765 83.3006C132.765 83.6141 132.698 83.9113 132.564 84.1936C132.429 84.4745 132.266 84.7182 132.074 84.9225L132.093 84.9418C132.31 84.8972 132.523 84.8252 132.732 84.7256C132.939 84.6275 133.139 84.5086 133.332 84.3705C133.524 84.2337 133.703 84.0837 133.868 83.9202C134.035 83.7568 134.185 83.5911 134.319 83.4254L134.386 83.4923C134.265 83.6461 134.121 83.8058 133.954 83.9722C133.788 84.1379 133.605 84.2962 133.403 84.4462C133.202 84.5978 132.98 84.7286 132.74 84.84C132.5 84.9529 132.246 85.031 131.977 85.0755C131.849 85.1907 131.705 85.3133 131.545 85.4403C131.385 85.5689 131.215 85.6863 131.036 85.7955C130.857 85.9047 130.675 85.9938 130.489 86.0644C130.304 86.135 130.121 86.1699 129.942 86.1699C129.808 86.1699 129.691 86.1424 129.592 86.0882C129.492 86.034 129.443 85.9433 129.443 85.8148C129.443 85.6863 129.508 85.5696 129.64 85.4834C129.771 85.3972 129.929 85.3274 130.116 85.2724C130.301 85.2182 130.494 85.1751 130.695 85.1431C130.896 85.1119 131.065 85.0852 131.199 85.0666C131.257 84.9901 131.322 84.8928 131.396 84.7739C131.469 84.6565 131.54 84.5228 131.607 84.3757C131.674 84.2293 131.73 84.071 131.775 83.9016C131.819 83.7315 131.841 83.5569 131.841 83.3786C131.841 83.308 131.837 83.2397 131.827 83.172C131.818 83.1052 131.798 83.0435 131.769 82.9893C131.74 82.935 131.701 82.8919 131.649 82.86C131.598 82.8273 131.53 82.8117 131.448 82.8117C131.256 82.8117 131.032 82.9365 130.775 83.1862C130.52 83.4358 130.249 83.7575 129.96 84.1513C129.672 84.5436 129.379 84.9834 129.081 85.4656C128.783 85.9493 128.497 86.4225 128.222 86.8869C127.947 87.3505 127.696 87.7785 127.468 88.1722C127.242 88.566 127.054 88.8721 126.908 89.0891L125.89 89.1277C126.747 87.745 127.603 86.3542 128.457 84.9522C129.312 83.5517 130.164 82.1571 131.015 80.7685L132.052 80.7202L132.055 80.7188ZM129.81 85.7866C129.81 85.927 129.899 85.9976 130.079 85.9976C130.168 85.9976 130.263 85.9686 130.361 85.9114C130.461 85.8534 130.558 85.7851 130.654 85.7048C130.75 85.6246 130.84 85.5392 130.923 85.4455C131.007 85.3534 131.077 85.268 131.134 85.1914C131.052 85.2048 130.935 85.2241 130.783 85.2494C130.633 85.2761 130.486 85.3096 130.342 85.3504C130.199 85.3928 130.075 85.4485 129.969 85.5183C129.864 85.5889 129.811 85.6781 129.811 85.7873L129.81 85.7866Z" fill="var(--fill-0, #D42D78)"/>
<path id="Vector_60" d="M138.273 83.5024C138.075 83.7713 137.863 84.0366 137.636 84.2996C137.407 84.5611 137.138 84.836 136.824 85.1243C136.383 85.5218 135.959 85.7952 135.552 85.9453C135.147 86.0953 134.764 86.1711 134.406 86.1711C134.048 86.1711 133.753 86.0619 133.542 85.845C133.331 85.628 133.225 85.3457 133.225 85.0002C133.225 84.6926 133.317 84.3895 133.504 84.0893C133.689 83.7884 133.923 83.5194 134.205 83.2824C134.485 83.0462 134.795 82.8537 135.13 82.7066C135.466 82.5588 135.784 82.486 136.086 82.486C136.361 82.486 136.575 82.5387 136.729 82.6442C136.883 82.7497 136.959 82.8983 136.959 83.0908C136.959 83.2446 136.907 83.385 136.801 83.5135C136.696 83.6406 136.56 83.7557 136.393 83.859C136.226 83.9608 136.039 84.0507 135.832 84.1279C135.624 84.2045 135.418 84.2721 135.212 84.3293C135.008 84.3858 134.816 84.434 134.637 84.4719C134.457 84.5106 134.311 84.5425 134.196 84.5678C134.163 84.6963 134.147 84.8115 134.147 84.9133C134.147 85.1897 134.224 85.4125 134.378 85.5856C134.531 85.7588 134.745 85.845 135.02 85.845C135.294 85.845 135.585 85.7647 135.907 85.605C136.231 85.4452 136.555 85.2112 136.882 84.9044C137.132 84.6681 137.372 84.4192 137.602 84.1614C137.832 83.9021 138.035 83.6599 138.207 83.4362L138.273 83.5031V83.5024ZM136.191 82.8493C136.191 82.7594 136.167 82.6955 136.119 82.6576C136.071 82.619 136.008 82.5997 135.932 82.5997C135.772 82.5997 135.6 82.6665 135.413 82.801C135.228 82.9355 135.053 83.0997 134.891 83.2958C134.728 83.4912 134.583 83.6955 134.459 83.9103C134.334 84.1242 134.252 84.3115 134.213 84.4705C134.475 84.4199 134.725 84.3345 134.961 84.2171C135.199 84.0982 135.407 83.9637 135.589 83.8137C135.772 83.6621 135.917 83.5031 136.026 83.3337C136.136 83.1643 136.19 83.0023 136.19 82.8485L136.191 82.8493Z" fill="var(--fill-0, #D42D78)"/>
<path id="Vector_61" d="M137.613 82.811L137.68 82.6379H138.419L139.138 81.4283L140.176 81.3897L139.378 82.6379H140.598L140.511 82.811H139.273C138.985 83.285 138.742 83.6825 138.544 84.0064C138.345 84.3296 138.187 84.5978 138.069 84.8118C137.95 85.0265 137.863 85.1982 137.809 85.3252C137.754 85.4538 137.728 85.5652 137.728 85.661C137.728 85.7435 137.749 85.8111 137.794 85.8624C137.839 85.9136 137.902 85.9389 137.986 85.9389C138.146 85.9389 138.357 85.8572 138.62 85.6937C138.881 85.5303 139.164 85.3052 139.464 85.0169C139.669 84.8126 139.893 84.5726 140.136 84.2977C140.38 84.0213 140.607 83.7434 140.818 83.4626L140.876 83.5109C140.728 83.7026 140.544 83.9359 140.319 84.2115C140.095 84.4864 139.849 84.7576 139.58 85.0265C139.433 85.1744 139.281 85.3133 139.124 85.4441C138.968 85.5763 138.809 85.69 138.65 85.7896C138.489 85.8891 138.333 85.9671 138.179 86.0251C138.025 86.083 137.875 86.1113 137.728 86.1113C137.523 86.1113 137.344 86.0645 137.19 85.9723C137.037 85.8802 136.96 85.7182 136.96 85.4872C136.96 85.3215 136.995 85.1499 137.066 84.9738C137.136 84.7984 137.233 84.6038 137.358 84.3928C137.483 84.1825 137.628 83.9485 137.795 83.6929C137.961 83.4373 138.141 83.1424 138.333 82.8095H137.613V82.811Z" fill="var(--fill-0, #D42D78)"/>
<path id="Vector_62" d="M139.015 86.0165L143.037 79.384L144.084 79.3357L140.897 84.3649L140.917 84.3842C141.057 84.2185 141.215 84.0254 141.392 83.8047C141.568 83.584 141.759 83.376 141.967 83.1806C142.176 82.9852 142.394 82.8203 142.625 82.6858C142.855 82.5513 143.095 82.4844 143.345 82.4844C143.55 82.4844 143.709 82.5372 143.825 82.6427C143.94 82.7482 143.998 82.9064 143.998 83.1182C143.998 83.2913 143.927 83.4941 143.787 83.7282C143.645 83.9607 143.493 84.2 143.326 84.4422C143.159 84.6859 143.006 84.9199 142.865 85.1428C142.725 85.3672 142.654 85.5559 142.654 85.7089C142.654 85.862 142.721 85.9393 142.856 85.9393C142.952 85.9393 143.073 85.8924 143.221 85.8003C143.368 85.7082 143.527 85.5878 143.696 85.44C143.866 85.2936 144.038 85.1264 144.215 84.9407C144.39 84.7557 144.56 84.5707 144.724 84.3887C144.886 84.2074 145.032 84.0358 145.159 83.876C145.288 83.7155 145.387 83.5878 145.457 83.4919L145.515 83.5499C145.349 83.7668 145.149 84.0164 144.915 84.2988C144.682 84.5796 144.437 84.8523 144.181 85.1138C143.836 85.4727 143.542 85.7283 143.298 85.8821C143.054 86.0358 142.805 86.1124 142.549 86.1124C142.319 86.1124 142.151 86.0455 142.045 85.911C141.94 85.7765 141.887 85.6227 141.887 85.4504C141.887 85.2275 141.958 85.0016 142.098 84.7735C142.24 84.5469 142.392 84.3248 142.559 84.1071C142.726 83.8887 142.879 83.6843 143.019 83.4927C143.16 83.301 143.23 83.1338 143.23 82.9934C143.23 82.9035 143.205 82.8351 143.154 82.7868C143.102 82.7385 143.045 82.7148 142.981 82.7148C142.84 82.7148 142.682 82.7735 142.505 82.8923C142.328 83.0112 142.144 83.165 141.948 83.353C141.753 83.5417 141.558 83.7564 141.363 83.9964C141.168 84.2364 140.981 84.4756 140.806 84.7156C140.63 84.9556 140.472 85.1881 140.336 85.4117C140.197 85.6361 140.087 85.8286 140.004 85.9875L139.015 86.0165Z" fill="var(--fill-0, #D42D78)"/>
<path id="Vector_63" d="M161.252 79.0862C160.849 79.2266 160.505 79.4414 160.216 79.7296C159.928 80.0179 159.669 80.3463 159.439 80.7185C159.208 81.0893 158.994 81.4905 158.795 81.9221C158.597 82.3545 158.386 82.7862 158.161 83.2186C157.939 83.651 157.689 84.0686 157.413 84.4705C157.138 84.874 156.811 85.2365 156.434 85.5553L156.453 85.5746C156.907 85.2804 157.321 84.9364 157.696 84.5426C158.07 84.1503 158.43 83.7394 158.776 83.3145C159.121 82.8887 159.459 82.4608 159.789 82.0328C160.118 81.6041 160.465 81.2074 160.829 80.8433C161.112 80.5551 161.405 80.3017 161.713 80.0848C162.02 79.8678 162.326 79.6851 162.63 79.5372C162.934 79.3894 163.23 79.2779 163.518 79.2014C163.806 79.1249 164.073 79.0862 164.323 79.0862C164.573 79.0862 164.737 79.0996 164.836 79.1249C164.936 79.1501 164.985 79.1984 164.985 79.269C164.985 79.3396 164.943 79.3797 164.86 79.3894C164.778 79.399 164.71 79.4035 164.659 79.4035C164.576 79.4035 164.498 79.3953 164.423 79.3797C164.35 79.3641 164.278 79.35 164.207 79.3366C164.137 79.3232 164.078 79.3113 164.029 79.298C163.981 79.2846 163.942 79.2787 163.909 79.2787C163.538 79.4458 163.219 79.6962 162.95 80.032C162.681 80.3678 162.431 80.7482 162.201 81.1732C161.971 81.5989 161.744 82.0492 161.519 82.5225C161.296 82.9965 161.043 83.4489 160.766 83.8814C160.488 84.3138 160.167 84.7061 159.802 85.0612C159.437 85.4163 158.995 85.6897 158.477 85.8822V85.9015H158.563C159.236 85.9015 159.798 85.825 160.254 85.6712C160.708 85.5174 161.092 85.3235 161.41 85.0857C161.726 84.8494 161.991 84.5887 162.202 84.3041C162.413 84.0188 162.605 83.7424 162.778 83.4735L162.854 83.5218C162.674 83.8293 162.47 84.1317 162.24 84.4282C162.009 84.7261 161.731 84.9921 161.405 85.2254C161.078 85.4594 160.687 85.6489 160.229 85.7967C159.771 85.9446 159.225 86.0174 158.592 86.0174C158.491 86.0174 158.386 86.0137 158.28 86.0077C158.175 86.0018 158.099 85.9981 158.054 85.9981C158.016 85.9981 157.947 86.0018 157.843 86.0077C157.742 86.0137 157.636 86.0174 157.527 86.0174C157.354 86.0174 157.268 85.9788 157.268 85.9022C157.268 85.8123 157.335 85.7678 157.469 85.7678C157.572 85.7678 157.683 85.7811 157.8 85.8064C157.919 85.8317 158.051 85.8577 158.199 85.8829C158.358 85.8502 158.528 85.7499 158.708 85.5805C158.887 85.4111 159.068 85.2001 159.25 84.9468C159.433 84.6949 159.607 84.4126 159.778 84.1028C159.948 83.7922 160.102 83.4831 160.244 83.1763C160.404 82.8248 160.587 82.466 160.795 82.1012C161.003 81.7364 161.243 81.3835 161.514 81.0402C161.787 80.6985 162.092 80.3805 162.431 80.0863C162.77 79.792 163.148 79.5387 163.564 79.3277L163.545 79.3084C163.065 79.4295 162.629 79.6122 162.239 79.8559C161.849 80.0996 161.484 80.379 161.144 80.6962C160.806 81.012 160.488 81.353 160.191 81.7178C159.893 82.0826 159.598 82.4526 159.307 82.8271C159.015 83.2015 158.718 83.5686 158.414 83.9311C158.11 84.2922 157.786 84.6236 157.439 84.9237C157.184 85.1481 156.913 85.3643 156.624 85.5716C156.336 85.7789 156.035 85.9542 155.722 86.0947L155.635 86.0181C155.93 85.7299 156.178 85.4082 156.38 85.053C156.581 84.6979 156.768 84.3256 156.941 83.9356C157.115 83.544 157.289 83.1473 157.468 82.7401C157.648 82.333 157.864 81.9325 158.116 81.5351C158.369 81.139 158.678 80.7586 159.043 80.3939C159.407 80.0291 159.859 79.6932 160.396 79.3856L160.377 79.3663C159.909 79.5394 159.484 79.7683 159.1 80.0528C158.716 80.3374 158.361 80.6442 158.034 80.9748C157.707 81.304 157.405 81.6435 157.127 81.9912C156.849 82.3404 156.587 82.6681 156.345 82.9757C156.082 83.3018 155.807 83.6481 155.519 84.0129C155.231 84.3762 154.919 84.7164 154.583 85.0292C154.247 85.3435 153.887 85.6021 153.505 85.8071C153.12 86.0122 152.701 86.1147 152.247 86.1147C152.079 86.1147 151.915 86.0909 151.747 86.0427C151.582 85.9944 151.429 85.9238 151.291 85.8317C151.154 85.7395 151.042 85.6244 150.955 85.4862C150.869 85.3495 150.826 85.1912 150.826 85.0107C150.826 84.8123 150.877 84.6436 150.975 84.5017C151.074 84.3613 151.229 84.2915 151.441 84.2915C151.563 84.2915 151.665 84.3301 151.748 84.4052C151.831 84.4817 151.873 84.5812 151.873 84.7031C151.873 84.998 151.729 85.1541 151.441 85.1734C151.448 85.4557 151.54 85.6533 151.719 85.7685C151.898 85.8837 152.119 85.9416 152.382 85.9416C152.727 85.9416 153.103 85.8443 153.51 85.6489C153.916 85.4542 154.337 85.1295 154.772 84.6741C155.098 84.3353 155.41 83.9764 155.708 83.5998C156.006 83.2216 156.305 82.8427 156.606 82.4623C156.906 82.0819 157.214 81.7111 157.531 81.3486C157.848 80.9875 158.19 80.6539 158.559 80.3463C158.927 80.0387 159.327 79.769 159.759 79.535C160.191 79.3009 160.669 79.1271 161.193 79.0119L161.251 79.0884L161.252 79.0862Z" fill="var(--fill-0, #D42D78)"/>
<path id="Vector_64" d="M165.524 82.6964L166.523 82.6384C166.465 82.7536 166.381 82.8925 166.273 83.056C166.164 83.2194 166.045 83.3955 165.918 83.5842C165.789 83.7729 165.66 83.9683 165.529 84.1697C165.398 84.3703 165.278 84.5657 165.169 84.7544C165.06 84.9438 164.972 85.1192 164.905 85.2826C164.838 85.4461 164.804 85.585 164.804 85.7002C164.804 85.8599 164.884 85.9402 165.044 85.9402C165.204 85.9402 165.405 85.8503 165.668 85.6712C165.93 85.4922 166.206 85.2559 166.494 84.9609C166.615 84.8398 166.739 84.7091 166.862 84.5672C166.987 84.4267 167.107 84.2878 167.222 84.1503C167.338 84.0122 167.443 83.8836 167.539 83.7662C167.635 83.6474 167.712 83.55 167.769 83.4735L167.836 83.5121C167.669 83.735 167.479 83.9839 167.26 84.2566C167.043 84.5278 166.78 84.8168 166.474 85.1244C166.167 85.432 165.864 85.6824 165.567 85.8778C165.269 86.0732 164.973 86.1705 164.679 86.1705C164.474 86.1705 164.316 86.1177 164.204 86.0122C164.092 85.9067 164.036 85.7767 164.036 85.6237C164.036 85.5731 164.04 85.5256 164.046 85.4795C164.053 85.4349 164.063 85.4 164.075 85.374H164.055C163.857 85.5984 163.632 85.7871 163.384 85.9402C163.135 86.094 162.866 86.1705 162.577 86.1705C162.424 86.1705 162.292 86.1415 162.184 86.0843C162.074 86.0264 161.987 85.9483 161.92 85.8488C161.853 85.7492 161.803 85.6378 161.771 85.513C161.739 85.3881 161.723 85.2589 161.723 85.1244C161.723 84.8108 161.809 84.4981 161.982 84.1845C162.155 83.8702 162.372 83.5872 162.635 83.3346C162.897 83.0812 163.19 82.8776 163.513 82.7201C163.837 82.5626 164.145 82.4846 164.439 82.4846C164.664 82.4846 164.839 82.5329 164.968 82.6287C165.096 82.7246 165.202 82.8747 165.284 83.0797L165.524 82.6956V82.6964ZM162.644 85.1534C162.644 85.3391 162.674 85.5011 162.736 85.6385C162.796 85.7767 162.925 85.8451 163.124 85.8451C163.259 85.8391 163.399 85.7827 163.546 85.6772C163.693 85.5717 163.836 85.4394 163.973 85.2789C164.111 85.1192 164.242 84.9416 164.367 84.7462C164.491 84.5516 164.601 84.3547 164.693 84.157C164.785 83.9579 164.86 83.7707 164.913 83.5954C164.968 83.4193 164.995 83.2699 164.995 83.1488C164.995 82.9757 164.962 82.8412 164.899 82.7454C164.835 82.6495 164.71 82.6013 164.525 82.6013C164.377 82.6013 164.23 82.6458 164.078 82.7357C163.928 82.8256 163.784 82.943 163.646 83.0909C163.509 83.2387 163.378 83.4029 163.254 83.5857C163.129 83.7685 163.021 83.9557 162.932 84.1474C162.842 84.3391 162.771 84.5233 162.721 84.6979C162.67 84.874 162.644 85.0271 162.644 85.1541V85.1534Z" fill="var(--fill-0, #D42D78)"/>
<path id="Vector_65" d="M169.054 82.6391C168.754 83.1131 168.494 83.518 168.277 83.8538C168.059 84.1896 167.881 84.4757 167.745 84.7119C167.607 84.9497 167.505 85.1429 167.437 85.2929C167.37 85.4445 167.336 85.5664 167.336 85.6629C167.336 85.7395 167.35 85.8019 167.379 85.8502C167.408 85.8985 167.451 85.9222 167.508 85.9222C167.636 85.9222 167.817 85.8487 168.051 85.7016C168.283 85.5552 168.577 85.3019 168.928 84.943C169.07 84.7966 169.207 84.6503 169.341 84.5061C169.476 84.362 169.602 84.2238 169.72 84.0893C169.839 83.9549 169.945 83.8323 170.037 83.7245C170.129 83.6153 170.205 83.5291 170.263 83.4652L170.349 83.5232C170.272 83.625 170.177 83.7416 170.066 83.8739C169.954 84.0046 169.834 84.1428 169.705 84.287C169.577 84.4296 169.446 84.5723 169.312 84.7127C169.177 84.8546 169.046 84.9891 168.918 85.1161C168.547 85.4883 168.229 85.7462 167.964 85.894C167.697 86.0419 167.453 86.1147 167.229 86.1147C167.018 86.1147 166.855 86.0567 166.74 85.9416C166.624 85.8264 166.566 85.6763 166.566 85.4906C166.566 85.3635 166.59 85.2298 166.638 85.0923C166.687 84.9556 166.768 84.784 166.884 84.5789C166.999 84.3746 167.153 84.1205 167.344 83.8167C167.536 83.512 167.777 83.1361 168.064 82.6881L169.052 82.6398L169.054 82.6391ZM169.611 80.5082C169.732 80.5082 169.841 80.5528 169.933 80.6427C170.025 80.7318 170.072 80.8373 170.072 80.9592C170.072 81.081 170.02 81.2029 169.918 81.3084C169.816 81.4139 169.701 81.4666 169.572 81.4666C169.432 81.4666 169.309 81.431 169.208 81.3559C169.106 81.2824 169.054 81.1724 169.054 81.0246C169.054 80.8767 169.11 80.7549 169.222 80.6561C169.333 80.5565 169.463 80.5075 169.61 80.5075L169.611 80.5082Z" fill="var(--fill-0, #D42D78)"/>
</g>
<defs>
<clipPath id="clip0_0_4">
<rect width="223.651" height="89.1268" fill="white"/>
</clipPath>
</defs>
</svg>
