<svg preserveAspectRatio="none" width="100%" height="100%" overflow="visible" style="display: block;" viewBox="0 0 302.003 59.2571" fill="none" xmlns="http://www.w3.org/2000/svg">
<g id="Group 1410085513">
<path id="Vector" d="M38.7797 35.8746H21.6114V41.8515C21.6114 47.9056 21.6885 48.4457 24.6021 49.0583C26.5173 49.5167 28.6639 51.2821 28.6639 54.0414C28.6639 57.4134 26.903 58.8701 22.6869 58.8701C20.0048 58.8701 19.0064 57.9489 14.4091 57.9489C9.8118 57.9489 8.43214 58.8701 6.05407 58.8701C1.838 58.8701 0 57.4134 0 54.0414C0 51.2821 2.22376 49.5213 4.13893 49.1355C8.12355 48.2914 8.50931 48.2914 8.50931 41.8561V21.0843C8.50931 15.1074 8.50931 14.7216 4.13893 13.8775C2.22376 13.4963 0 11.6537 0 8.89441C0 5.52245 1.838 4.06568 6.05407 4.06568C8.65906 4.06568 9.73465 4.98694 14.4091 4.98694C19.0835 4.98694 20.2363 4.06568 22.6869 4.06568C26.903 4.06568 28.6639 5.52245 28.6639 8.89441C28.6639 11.6537 26.5173 13.2648 24.6021 13.8003C21.8428 14.6444 21.6114 14.7216 21.6114 21.0843V25.8359H38.7797V21.0843C38.7797 14.7216 38.5483 14.6444 35.789 13.8003C33.951 13.2648 31.7273 11.6537 31.7273 8.89441C31.7273 5.52245 33.5652 4.06568 37.7042 4.06568C40.1594 4.06568 41.4619 4.98694 45.982 4.98694C50.5022 4.98694 51.7321 4.06568 54.4142 4.06568C58.6303 4.06568 60.3911 5.52245 60.3911 8.89441C60.3911 11.6537 58.1673 13.4917 56.2522 13.8775C51.8818 14.7216 51.8818 15.1028 51.8818 21.0843V41.8561C51.8818 48.2959 52.2676 48.2959 56.2522 49.1355C58.1673 49.5167 60.3911 51.2821 60.3911 54.0414C60.3911 57.4134 58.6303 58.8701 54.4142 58.8701C51.9635 58.8701 50.6565 57.9489 45.982 57.9489C41.3076 57.9489 40.3863 58.8701 37.7042 58.8701C33.5652 58.8701 31.7273 57.4134 31.7273 54.0414C31.7273 51.2821 33.951 49.5212 35.789 49.0583C38.7026 48.4457 38.7797 47.9101 38.7797 41.8515V35.8746Z" fill="var(--fill-0, #D42D78)"/>
<path id="Vector_2" d="M63.1533 48.0645C63.1533 38.4841 71.0499 34.6493 86.9158 34.2681C86.8387 26.68 86.226 24.842 82.0099 24.842C78.0253 24.842 77.0269 26.1445 77.0269 29.6708C77.0269 32.0488 75.266 33.197 72.7336 33.197C68.5947 33.197 65.9897 30.5149 65.9897 26.4531C65.9897 24.0024 67.982 17.0997 82.9312 17.0997C94.581 17.0997 99.26 21.6198 99.26 31.359V45.0011C99.26 49.2943 99.4143 49.8299 103.399 49.8299C104.624 49.8299 105.927 50.0613 105.927 51.9765C105.927 53.8916 104.856 59.2559 98.1072 59.2559C94.9622 59.2559 91.4359 58.0306 89.5979 54.2728C86.6843 57.1864 82.314 59.2559 75.8787 59.2559C64.8415 59.2559 63.1533 52.0491 63.1533 48.0645ZM75.5701 46.0722C75.5701 49.0629 76.7228 50.0568 81.3201 50.0568C85.9174 50.0568 87.0701 45.7636 87.0701 40.9348C77.104 40.9348 75.5701 43.1586 75.5701 46.0722Z" fill="var(--fill-0, #D42D78)"/>
<path id="Vector_3" d="M127.081 45.4601C127.081 49.4447 127.235 49.5219 129.608 50.366C131.297 50.9787 132.291 52.204 132.291 54.5049C132.291 57.5728 130.602 58.8753 127.77 58.8753C125.315 58.8753 124.167 58.1084 119.874 58.1084C115.581 58.1084 114.891 58.8753 112.667 58.8753C108.76 58.8753 107.071 57.5728 107.071 54.5049C107.071 51.9771 109.141 50.366 110.906 50.0574C114.968 49.2904 114.968 49.059 114.968 43.4633V14.1822C114.968 8.43216 114.659 8.43216 110.906 8.43216C109.068 8.43216 107.071 7.43372 107.071 4.98304C107.071 1.91515 110.52 0 117.341 0C125.542 0 127.076 2.52784 127.076 11.4955V34.1825C130.602 31.7318 135.508 28.0512 135.508 26.363C135.508 26.0544 135.354 25.8275 135.05 25.6732C133.362 24.9062 131.678 23.9123 131.678 21.8428C131.678 18.7749 133.362 17.4724 136.198 17.4724C138.649 17.4724 139.879 18.2394 144.095 18.2394C148.311 18.2394 149.078 17.4724 151.302 17.4724C155.209 17.4724 156.897 18.7749 156.897 21.8428C156.897 26.0589 151.533 26.5173 149.845 27.3614C148.234 28.1284 145.093 30.3521 141.49 33.1114C145.093 38.7072 151.456 47.6748 156.589 49.7443C159.271 50.8153 160.805 51.9681 160.805 54.4959C160.805 57.178 159.348 58.8663 155.441 58.8663C153.14 58.8663 151.606 58.0993 147.317 58.0993C143.028 58.0993 141.876 58.8663 139.42 58.8663C136.584 58.8663 134.9 57.5638 134.9 54.4959C134.9 52.195 135.976 51.1239 137.659 50.357C138.118 50.1255 138.272 49.8214 138.272 49.3585C138.272 47.3662 134.592 43.1501 132.064 40.468L127.081 44.5298V45.4511V45.4601Z" fill="var(--fill-0, #D42D78)"/>
<path id="Vector_4" d="M179.277 43.4683C179.277 47.9885 180.888 49.2955 185.258 49.2955C189.629 49.2955 191.008 47.4575 191.008 43.6226V31.6642C191.008 25.9142 190.7 25.9142 186.947 25.9142C185.109 25.9142 183.112 24.9158 183.112 22.4651C183.112 19.3972 186.561 17.4821 193.382 17.4821C201.583 17.4821 203.117 20.0099 203.117 28.9821V45.0023C203.117 49.2955 203.271 49.831 207.256 49.831C208.481 49.831 209.783 50.0625 209.783 51.9776C209.783 53.8928 208.708 59.2571 201.964 59.2571C198.823 59.2571 195.143 57.9546 193.305 54.0426C190.314 57.4917 185.563 59.2571 181.346 59.2571C171.535 59.2571 166.86 54.3512 166.86 46.2276C166.86 46.0733 167.169 32.9667 167.169 30.0531C167.169 25.9142 166.479 25.9142 163.107 25.9142C161.269 25.9142 159.272 24.9158 159.272 22.4651C159.272 19.3972 162.721 17.4821 169.542 17.4821C177.743 17.4821 179.277 20.0099 179.277 28.9821V43.4683Z" fill="var(--fill-0, #D42D78)"/>
<path id="Vector_5" d="M225.809 53.8142C224.048 57.6491 220.749 58.8744 217.835 58.8744C214.617 58.8744 213.161 57.1135 213.161 55.1167C213.161 52.4346 215.997 51.1321 215.997 38.6381V14.1858C215.997 8.43576 215.462 8.43574 211.935 8.43574C210.097 8.43574 208.028 7.43733 208.028 4.98665C208.028 1.91876 211.554 0.00360752 218.298 0.00360752C226.576 0.00360752 228.11 2.53142 228.11 11.4991V21.1566C230.869 18.5516 234.55 17.0948 239.07 17.0948C247.579 17.0948 255.626 23.0718 255.626 38.1752C255.626 53.2787 247.579 59.2556 238.838 59.2556C233.624 59.2556 228.949 57.4948 225.809 53.8142ZM228.264 37.6397C228.264 45.3049 230.411 48.3728 235.852 48.3728C240.3 48.3728 242.519 46.3805 242.519 37.6397C242.519 29.9745 240.681 27.4467 235.852 27.4467C231.023 27.4467 228.264 29.9745 228.264 37.6397Z" fill="var(--fill-0, #D42D78)"/>
<path id="Vector_6" d="M259.229 48.0645C259.229 38.4841 267.126 34.6493 282.992 34.2681C282.915 26.68 282.302 24.842 278.086 24.842C274.101 24.842 273.103 26.1445 273.103 29.6708C273.103 32.0488 271.342 33.197 268.81 33.197C264.671 33.197 262.066 30.5149 262.066 26.4531C262.066 24.0024 264.058 17.0997 279.007 17.0997C290.657 17.0997 295.336 21.6198 295.336 31.359V45.0011C295.336 49.2943 295.49 49.8299 299.475 49.8299C300.7 49.8299 302.003 50.0613 302.003 51.9765C302.003 53.8916 300.932 59.2559 294.183 59.2559C291.038 59.2559 287.512 58.0306 285.674 54.2728C282.761 57.1864 278.39 59.2559 271.955 59.2559C260.918 59.2559 259.229 52.0491 259.229 48.0645ZM271.646 46.0722C271.646 49.0629 272.799 50.0568 277.396 50.0568C281.994 50.0568 283.146 45.7636 283.146 40.9348C273.18 40.9348 271.646 43.1586 271.646 46.0722Z" fill="var(--fill-0, #D42D78)"/>
</g>
</svg>
